<svg xmlns="http://www.w3.org/2000/svg" version="1.1" xmlns:xlink="http://www.w3.org/1999/xlink" xmlns:svgjs="http://svgjs.dev/svgjs" viewBox="0 0 4.600152505473868 3.679587030091092"><g transform="matrix(0.8420945235154736,0,0,0.8420945235154736,2.300373689081013,3.256452809997426)"><rect width="5.290130800104281" height="5.290130800104281" x="-2.645418610215339" y="-4.32736976778248" fill="#f2f0f0"></rect><g transform="matrix(1,0,0,1,0,0)"><path d=" M -1.3071544892867595 -1.5750834237821738 Q -1.307882787230899 -1.573220742353544 -1.3132048838941905 -1.5651013035116916 Q -1.3185269805574822 -1.5569818646698395 -1.324416268963019 -1.5501579155143717 Q -1.3303055573685558 -1.5433339663589039 -1.3343950691978852 -1.5438592215328677 Q -1.3528188407140078 -1.5489153705735614 -1.3810459780501936 -1.5728366731677788 Q -1.4092731153863796 -1.5967579757619959 -1.4423213825316499 -1.631690940690482 Q -1.4753696496769204 -1.666623905618968 -1.506474682292614 -1.702407658160822 Q -1.5079312781808927 -1.6986822953035623 -1.5100356189123636 -1.69467333657518 Q -1.5121399596438345 -1.6906643778467978 -1.5139607045041827 -1.6860076742752232 Q -1.5201931735976486 -1.6755598836475838 -1.5285752400264827 -1.6788372243962106 Q -1.5332319435980573 -1.680657969256559 -1.529226304905291 -1.6909027171140232 Q -1.5263131131287337 -1.6983534428285423 -1.5236625489391582 -1.703759412628397 Q -1.5210119847495829 -1.7091653824282516 -1.5184629419450952 -1.7156847674284559 Q -1.5465709096476683 -1.7481492426534015 -1.5687862689090888 -1.7750885784448798 Q -1.5910016281705093 -1.802027914236358 -1.6033540367950603 -1.814373682789677 Q -1.6114138908201063 -1.8239673657683326 -1.6176706482333287 -1.828561164487485 Q -1.6239274056465511 -1.8331549632066375 -1.6276527685038107 -1.834611559094916 Q -1.6332408127897002 -1.836796452927334 -1.6376944735910992 -1.8363903673869828 Q -1.6481422642187389 -1.8426228364804487 -1.6622172163541662 -1.8615475748507784 Q -1.6762921684895935 -1.880472313221108 -1.6880001523065682 -1.9054507662344846 Q -1.6997081361235427 -1.9304292192478614 -1.7042699583812615 -1.9558347260857296 Q -1.7088317806389801 -1.9812402329235983 -1.7019129501696564 -1.9989357064955815 Q -1.6997280563372383 -2.004523750781471 -1.6919165016862654 -2.0148909883081636 Q -1.6841049470352925 -2.025258225834856 -1.673215774370252 -2.033885271602147 Q -1.6623266017052116 -2.0425123173694386 -1.6491267255029087 -2.040572402875478 Q -1.6468998951022094 -2.0407754456456533 -1.6431745322449498 -2.0393188497573744 Q -1.640380510102005 -2.0382264028411656 -1.641472957018214 -2.0354323806982206 Q -1.6422012549623533 -2.033569699269591 -1.6448727874360696 -2.0308562302275934 Q -1.6475443199097857 -2.0281427611855953 -1.648272617853925 -2.026280079756966 Q -1.6562838952394576 -2.005790584042038 -1.6464772093837785 -1.9745763418995794 Q -1.6366705235280992 -1.9433620997571213 -1.6148369614872733 -1.90583483542025 Q -1.5930033994464474 -1.8683075710833787 -1.5640027075622247 -1.8285148598131427 Q -1.5350020156780022 -1.7887221485429063 -1.5046252810064478 -1.7510757145724225 Q -1.4882805138315944 -1.7983710482323074 -1.4776672488959997 -1.8543496924406737 Q -1.467053983960405 -1.9103283366490402 -1.4637899233542417 -1.9681067574336142 Q -1.4605258627480786 -2.0258851782181884 -1.467625719632992 -2.0791260650648002 Q -1.4747255765179053 -2.132366951911412 -1.4938070529840681 -2.1741867708477884 Q -1.5155214453912815 -2.2202572078153877 -1.551843733249563 -2.234459017726105 Q -1.5788526139646952 -2.245019337916125 -1.6101474092081007 -2.233633566502939 Q -1.641442204451506 -2.2222477950897526 -1.6706646354248742 -2.1832087181538573 Q -1.688311532357344 -2.1600443699295973 -1.704964183723077 -2.1284383704596967 Q -1.7216168350888097 -2.096832370989796 -1.736546942943666 -2.0586474017028844 Q -1.7598524771561244 -1.9990415959867303 -1.7741877849133627 -1.9321704590777076 Q -1.7885230926706013 -1.8652993221686849 -1.789052715950626 -1.8021568681525377 Q -1.789582339230651 -1.7390144141363906 -1.7724827138267305 -1.6893797205134256 Q -1.75538308842281 -1.6397450268904605 -1.7145232666265668 -1.6151792994886671 Q -1.693263536399218 -1.6036457020160504 -1.6758549787339732 -1.609723704978854 Q -1.6584464210687284 -1.6158017079416576 -1.6450887587001475 -1.629369053151646 Q -1.6317310963315665 -1.6429363983616345 -1.6225015623249806 -1.6500649116723656 Q -1.6143644752346034 -1.6543994028401519 -1.6106391123773438 -1.6529428069518732 Q -1.6041197273771393 -1.6503937641473856 -1.6107163454426747 -1.6390146328054311 Q -1.6186084531945948 -1.6270683097212313 -1.636318254979487 -1.611981463770542 Q -1.6540280567643793 -1.5968946178198526 -1.6778335097605996 -1.58955974170333 Q -1.7016389627568203 -1.5822248655868074 -1.7258538213290078 -1.5916927388606188 Q -1.7295791841862675 -1.5931493347488974 -1.7331224725574923 -1.5950716009943335 Q -1.736665760928717 -1.5969938672397697 -1.7400269748139072 -1.599381803842363 Q -1.740958315528222 -1.5997459528144329 -1.7462627639429888 -1.6012831018036586 Q -1.7515672123577557 -1.6028202507928841 -1.7552925752150152 -1.604276846681163 Q -1.7819792435263595 -1.621153509101212 -1.7986694633543128 -1.6539854533338432 Q -1.8153596831822658 -1.6868173975664742 -1.8239128159198421 -1.7239838329668915 Q -1.8324659486574182 -1.761150268367309 -1.834741355697631 -1.7910304042907172 Q -1.8390471904395997 -1.8431788442211203 -1.827586457926253 -1.9095633424888447 Q -1.8161257254129064 -1.9759478407565694 -1.7899069994238905 -2.0430043721872426 Q -1.7738844446528252 -2.083983363617099 -1.7524559200819052 -2.1223117908573794 Q -1.7310273955109854 -2.16064021809766 -1.7039898583700355 -2.1940912507476655 Q -1.665537893390081 -2.240258840994292 -1.6172792425544478 -2.2552121890984598 Q -1.5690205917188143 -2.2701655372026277 -1.5300653879194823 -2.2517131092606872 Q -1.49297286554878 -2.2339889792628864 -1.4715244207641645 -2.198222874969557 Q -1.4500759759795487 -2.162456770676228 -1.4416420128755854 -2.1167471626450824 Q -1.4332080497716218 -2.0710375546139366 -1.43420666344442 -2.0204262636727592 Q -1.4352052771172181 -1.969814972731582 -1.4424396799190982 -1.9211049797517 Q -1.4498771254911536 -1.8746218171725173 -1.4639740939811667 -1.824837025524951 Q -1.4780710624711801 -1.775052233877385 -1.4920698296117214 -1.736503115618404 Q -1.4607617542258522 -1.6984925326758507 -1.4321075630651745 -1.6674250685223775 Q -1.4034533719044968 -1.6363576043689043 -1.385309876223881 -1.6196001115824679 Q -1.3677335722855102 -1.604138108482416 -1.3593515058566759 -1.600860767733789 Q -1.3463127358562672 -1.5957626821248136 -1.342307097163501 -1.6060074299822777 Q -1.3372090115545257 -1.6190461999826864 -1.3490781015733941 -1.6408664818810486 Q -1.3571798921667217 -1.6558451663754183 -1.3644308951466813 -1.668880616340211 Q -1.371681898126641 -1.681916066305004 -1.3672701738935236 -1.6877071533610688 Q -1.365974684207139 -1.6882743451033142 -1.3641120027785092 -1.6875460471591748 Q -1.3594552992069346 -1.6857253022988266 -1.3540879459397455 -1.67611065103603 Q -1.3487205926725565 -1.6664959997732334 -1.348153400930311 -1.6652005100868488 Q -1.3413890365916497 -1.6550396353659478 -1.3297439576270975 -1.638138684626142 Q -1.3180988786625452 -1.6212377338863364 -1.3100776411701647 -1.6046799638344593 Q -1.3020564036777842 -1.5881221937825827 -1.3071544892867595 -1.5750834237821738 M -1.336332979212325 -2.2880712394482314 Q -1.3441721540332385 -2.277700736175624 -1.354608669854339 -2.2680400355014534 Q -1.3650451856754395 -2.258379334827283 -1.3778088820109562 -2.268027549991484 Q -1.3802020750738655 -2.269836590334772 -1.3808364347597384 -2.287239107043252 Q -1.3814707944456113 -2.3046416237517326 -1.3819010061942067 -2.323143378205064 Q -1.382331217942802 -2.3416451326583956 -1.3821176396414538 -2.34524435261683 Q -1.3830346453230673 -2.3672479682419922 -1.380622591532017 -2.3704388923258715 Q -1.377607524293204 -2.37442754743072 -1.3702520882594096 -2.362599717504958 Q -1.3628966522256152 -2.350771887579196 -1.3549193420159173 -2.34474175310157 Q -1.3509306869110684 -2.3417266858627572 -1.3449759953460065 -2.3297041383637875 Q -1.3390213037809444 -2.317681590864818 -1.335868101153347 -2.305269608219434 Q -1.3327148985257498 -2.29285762557405 -1.336332979212325 -2.2880712394482314 M -1.1164737395112612 -1.9852397438635248 Q -1.1273279815709876 -1.9708805854860687 -1.142453524731303 -1.9641375932641072 Q -1.1575790678916187 -1.957394601042146 -1.1793502444872919 -1.965076779746134 Q -1.1823464509979638 -1.9660880890684518 -1.1850411507847545 -1.9674982639012546 Q -1.1877358505715452 -1.9689084387340574 -1.1909267746554242 -1.9713204925251078 Q -1.20688139507482 -1.9833807614803591 -1.2253862046740505 -2.0086507441019643 Q -1.243891014273281 -2.0339207267235695 -1.2583883080395217 -2.0611756065335287 Q -1.2556245405583388 -2.0515651128256094 -1.2512747413992868 -2.0382486100085817 Q -1.2469249422402349 -2.0249321071915536 -1.2416109855792172 -2.0021118998172804 Q -1.2408321152863884 -1.996508921942351 -1.243847182525201 -1.9925202668375022 Q -1.248068276659539 -1.9869361496907136 -1.2544501248272975 -1.9917602572728144 Q -1.259236510953116 -1.9953783379593897 -1.260015381245945 -2.000981315834319 Q -1.2706621552961213 -2.0416217661556986 -1.279041386162203 -2.073653601727406 Q -1.287420617028285 -2.105685437299113 -1.2957496409281153 -2.124516989568537 Q -1.2965473719490852 -2.1251200030163 -1.2972477441834513 -2.1250226442296962 Q -1.2979481164178175 -2.124925285443093 -1.2987458474387872 -2.1255282988908553 Q -1.3011390405016967 -2.127337339234143 -1.3041163862842275 -2.1333486129836277 Q -1.318437823205402 -2.154202783897688 -1.3264747707454216 -2.1709332194640134 Q -1.3345117182854414 -2.187663655030339 -1.3300770458497553 -2.196846992135562 Q -1.32887101895423 -2.1984424541775014 -1.3280638575691899 -2.200339422943322 Q -1.3272566961841497 -2.202236391709143 -1.3260506692886245 -2.203831853751083 Q -1.3194175213632362 -2.2126068949817506 -1.310001745228524 -2.2167714069316657 Q -1.300585969093812 -2.220935918881581 -1.2926086588841141 -2.214905784403955 Q -1.285429079695386 -2.209478663374092 -1.2789781638332356 -2.196454236916875 Q -1.272527247971085 -2.183429810459658 -1.2634004930502847 -2.1639952447424715 Q -1.239971161936451 -2.1187065436840578 -1.2206089839859289 -2.08213324652599 Q -1.201246806035407 -2.045559949367923 -1.1833072884276572 -2.0294921645796813 Q -1.1807193777915406 -2.0262823797676615 -1.1779273192181463 -2.0241718327004925 Q -1.175135260644752 -2.0220612856333235 -1.1719443365608728 -2.019649231842273 Q -1.1400350957220813 -1.9955286939317702 -1.1243567460802546 -2.0162697004769847 Q -1.1147085309160534 -2.0290333968125016 -1.1135934875889606 -2.059529407672591 Q -1.1124784442618676 -2.0900254185326808 -1.1171422356547704 -2.1261432679958405 Q -1.121806027047673 -2.1622611174590007 -1.1275879169135679 -2.1935831504322714 Q -1.1333698067794626 -2.2249051834055424 -1.1381184714489996 -2.2385231929464515 Q -1.1387026241686213 -2.2427254263526484 -1.1368935838253336 -2.2451186194155577 Q -1.1344815300342832 -2.248309543499437 -1.1305808033519675 -2.248494830708574 Q -1.1266800766696516 -2.2486801179177105 -1.123897448460328 -2.244069588636958 Q -1.1157631421337046 -2.226638780836266 -1.1083857902258702 -2.1941107209674704 Q -1.1010084383180359 -2.1615826610986746 -1.0966461536490144 -2.1250659461250296 Q -1.092283868979993 -2.0885492311513847 -1.093000046796601 -2.0577517135674137 Q -1.0928619114078164 -2.0413510758171807 -1.098637690981913 -2.021272720050051 Q -1.1044134705560098 -2.0011943642829206 -1.1164737395112612 -1.9852397438635248 M -0.8091119852152688 -2.2650100961332487 Q -0.8200627601430983 -2.246869519282442 -0.8362453665278576 -2.233485825823761 Q -0.8570515747368339 -2.2162782199483138 -0.8844829888911966 -2.207865876785328 Q -0.9119144030455593 -2.1994535336223424 -0.9457335491129061 -2.1948420957472905 Q -0.9652069416427975 -2.1917136802734816 -0.9872586982206144 -2.183857470510962 Q -0.9936149604276417 -2.161730610572066 -1.0010459377550616 -2.1432568298014885 Q -1.0084769150824815 -2.1247830490309103 -1.0192653193389878 -2.115860586725123 Q -1.025430121771277 -2.1107620368361015 -1.029016560155641 -2.110391281235791 Q -1.0355521181882408 -2.108879169731133 -1.0431999430217729 -2.118126373379567 Q -1.0527597240636881 -2.1296853779401097 -1.0539470942256992 -2.1546571650627477 Q -1.0551344643877103 -2.179628952185386 -1.0273928534424086 -2.2025724266859825 Q -1.0127514476657216 -2.2146814826724084 -0.9927449288641961 -2.2234415743068725 Q -0.9854556956818095 -2.2554238675269156 -0.9860639253145224 -2.264004663335807 Q -0.9767754686135085 -2.317105742158307 -0.969969646073051 -2.373993181717034 Q -0.9631638235325937 -2.4308806212757608 -0.958394776191303 -2.4737555112168037 Q -0.9827583336812284 -2.463987345245901 -1.00135693344259 -2.4550939720435285 Q -1.0199555332039516 -2.4462005988411555 -1.038050095797094 -2.435128706294583 Q -1.0425404160534024 -2.4327127129179806 -1.0467120769416471 -2.4299114193893603 Q -1.0508837378298916 -2.4271101258607404 -1.0547367393500724 -2.4239235321801016 Q -1.0724605463429042 -2.4092652012491653 -1.0796916013184612 -2.3929032990388333 Q -1.0869226562940184 -2.376541396828501 -1.0894259169808649 -2.3576011305702433 Q -1.0929663411075645 -2.3352077074955306 -1.093505549353781 -2.3107545020928186 Q -1.0940447575999976 -2.286301296690107 -1.0933614246062056 -2.2635080289116685 Q -1.0931239505738033 -2.258513671487141 -1.0929676618770627 -2.248910256790104 Q -1.0928113731803222 -2.2393068420930664 -1.0984430493409776 -2.2398399683647003 Q -1.1040747255016328 -2.2403730946363343 -1.1066240004461436 -2.243455495852479 Q -1.1091732753906542 -2.246537897068624 -1.1094107494230565 -2.2515322544931515 Q -1.1115771048180914 -2.288671275809045 -1.113572626964678 -2.320111980180329 Q -1.1155681491112648 -2.351552684551613 -1.1156432524723439 -2.36576515652116 Q -1.1188467713072316 -2.399451021020598 -1.1102598935237575 -2.4188807798953675 Q -1.1016730157402834 -2.438310538770137 -1.0870316099635964 -2.450419594756563 Q -1.0739314047949817 -2.4612540132707332 -1.0571926650097563 -2.469258049152869 Q -1.0404539252245308 -2.4772620850350044 -1.0226259257672055 -2.4855181395012496 Q -1.006205845350044 -2.4939074755354027 -0.987540604804728 -2.5035048082578575 Q -0.9688753642594123 -2.5131021409803123 -0.9524552838422506 -2.5214914770144654 Q -0.9507517125628552 -2.5319842290317403 -0.9419649124275183 -2.5535258664667553 Q -0.9331781122921814 -2.5750675039017703 -0.9223897080356752 -2.583989966207558 Q -0.911601303779169 -2.5929124285133454 -0.9026788414733815 -2.582124024256839 Q -0.8918444229592111 -2.5690238190882244 -0.8951849247340479 -2.5487422745737573 Q -0.8985254265088847 -2.5284607300592903 -0.9101801609567961 -2.5103867939924376 Q -0.9218348954047075 -2.4923128579255853 -0.9345352558695967 -2.485702196531906 Q -0.9422534228591236 -2.4416859506865167 -0.9534308286396884 -2.379885339038924 Q -0.9646082344202532 -2.318084727391331 -0.9726220536490118 -2.263442447960758 Q -0.974696380528718 -2.2565361343278476 -0.975881370088187 -2.247769960718801 Q -0.977066359647656 -2.2390037871097537 -0.9787699309270514 -2.2285110350924793 Q -0.9700558535502515 -2.230527183765356 -0.9623643950615972 -2.2329952733742053 Q -0.954672936572943 -2.2354633629830545 -0.9467294595001792 -2.2368421929198035 Q -0.9143182324729963 -2.2415869123627634 -0.8870200998865421 -2.2485913364855854 Q -0.8597219673000879 -2.2555957606084074 -0.8404569596991839 -2.271528729011599 Q -0.8219625524023161 -2.2868243786786633 -0.8125238889791442 -2.31150051356207 Q -0.803989107427917 -2.334131410669185 -0.7969894445101795 -2.374309199546101 Q -0.7899897815924418 -2.4144869884230173 -0.7864953717234066 -2.4589030789721327 Q -0.7830009618543712 -2.5033191695212476 -0.7849298432170038 -2.5354638334126136 Q -0.785167317249406 -2.5404581908371413 -0.7797731151211529 -2.544919421990035 Q -0.7766907139050082 -2.547468696934546 -0.7738082350407263 -2.5479060933188107 Q -0.7709257561764444 -2.5483434897030754 -0.769917681840006 -2.5439864510146757 Q -0.7671600219665078 -2.5280994968691477 -0.7673951153963678 -2.49935589356199 Q -0.767630208826228 -2.4706122902548326 -0.7705103070879677 -2.4364369331388827 Q -0.7733904053497076 -2.4022615760229327 -0.7781824598198304 -2.370398019819091 Q -0.7829745142899531 -2.3385344636152494 -0.7886934577608528 -2.3156370033723173 Q -0.7942791196638438 -2.294147462169549 -0.7992504699595393 -2.2828986543999457 Q -0.8042218202552349 -2.2716498466303423 -0.8091119852152688 -2.2650100961332487 M -0.44646438628068474 -2.4564317891130796 Q -0.46232334124237473 -2.4423785493612256 -0.4817589477622685 -2.4344251099037417 Q -0.5067475847164178 -2.424199259172691 -0.5354395564692515 -2.424343331843906 Q -0.5641315282220852 -2.4244874045151206 -0.5977884091416866 -2.430163174662314 Q -0.6173093474946882 -2.4329797267776336 -0.640700340785047 -2.432051592686896 Q -0.6533613794007943 -2.4128240577130478 -0.6659597336508917 -2.3974038933109068 Q -0.678558087900989 -2.3819837289087658 -0.6915151589142516 -2.37668143593711 Q -0.6989191994932588 -2.373651554239021 -0.7024531851349087 -2.374366358746989 Q -0.7091424212059475 -2.3748704626905504 -0.7136872437530811 -2.385976523559061 Q -0.7193682719369981 -2.3998590996446993 -0.7130604000965824 -2.4240502292761343 Q -0.7067525282561667 -2.4482413589075693 -0.6734343456506344 -2.46187582654897 Q -0.6558497492754924 -2.4690717955819315 -0.6341417314820318 -2.4714722046051603 Q -0.6176533038454812 -2.4998294215714676 -0.6156769249694296 -2.5082016331394046 Q -0.5909869494311576 -2.5561224543752674 -0.5675385298118728 -2.608397416042952 Q -0.5440901101925879 -2.6606723777106374 -0.5267615093167692 -2.7001783214620096 Q -0.5529290178242556 -2.698113981734488 -0.5733327953330792 -2.695166802851145 Q -0.5937365728419028 -2.692219623967802 -0.6143083849985801 -2.6870426997274457 Q -0.6193146455727208 -2.6860745287385157 -0.6241315385407308 -2.684643605213398 Q -0.6289484315087408 -2.6832126816882806 -0.6335759568706203 -2.6813190056269747 Q -0.6548625735352659 -2.6726080957449687 -0.6666407729951912 -2.6591442917697834 Q -0.6784189724551164 -2.645680487794598 -0.6864524857089842 -2.6283466288820554 Q -0.6965050437554574 -2.6080255541879778 -0.7043065234866408 -2.5848439469528457 Q -0.7121080032178241 -2.561662339717713 -0.7182478404103863 -2.5397009554432914 Q -0.7195094147784693 -2.534862729517004 -0.7222219311207663 -2.525649030200618 Q -0.7249344474630631 -2.516435330884232 -0.7301514086016112 -2.5186224103246913 Q -0.7353683697401593 -2.52080948976515 -0.7368833105892039 -2.524511510054654 Q -0.7383982514382484 -2.5282135303441575 -0.7371366770701653 -2.5330517562704444 Q -0.7281376218457296 -2.5691490831114665 -0.7206735259194345 -2.599756063883883 Q -0.7132094299931393 -2.630363044656299 -0.7090459716766288 -2.6439522173627843 Q -0.7020659612447985 -2.6770623284222705 -0.6880793493861372 -2.6930505956428035 Q -0.674092737527476 -2.709038862863336 -0.656508141152334 -2.7162348318962977 Q -0.6407745549219438 -2.722673330504737 -0.6224111551640026 -2.7253257914997455 Q -0.6040477554060613 -2.7279782524947547 -0.5845694829696135 -2.7305466961658365 Q -0.5663954508178028 -2.7336619096970334 -0.545718288378922 -2.7372612087226953 Q -0.5250411259400409 -2.7408605077483568 -0.5068670937882302 -2.7439757212795537 Q -0.5021141996950511 -2.753484138484274 -0.4873074330462177 -2.7714287661317623 Q -0.4725006663973843 -2.7893733937792504 -0.4595435953841217 -2.794675686750906 Q -0.4465865243708592 -2.799977979722562 -0.4412842313992033 -2.7870209087093 Q -0.434845732790764 -2.7712873224789094 -0.4440781360470651 -2.7529226082117875 Q -0.4533105393033661 -2.734557893944665 -0.46982161440737463 -2.7207780391228686 Q -0.48633268951138314 -2.7069981843010718 -0.5004259661614291 -2.7044724065465435 Q -0.5209098174666367 -2.6647557622307643 -0.5499952848441036 -2.6090935166110056 Q -0.5790807522215707 -2.5534312709912474 -0.6030132573353204 -2.5036594396106326 Q -0.6070513469205313 -2.4976850080475623 -0.6107947186174079 -2.48967019873361 Q -0.6145380903142843 -2.481655389419657 -0.6192909844074636 -2.4721469722149365 Q -0.6103720029794119 -2.471474833623522 -0.6022945092998092 -2.4715388324983527 Q -0.5942170156202066 -2.4716028313731835 -0.5862235392645307 -2.470551957569508 Q -0.5538708986295664 -2.4654229572824296 -0.5257256967368474 -2.4639746443265778 Q -0.4975804948441285 -2.462526331370726 -0.474442868034731 -2.4719947116772545 Q -0.4522307462977095 -2.4810843567715217 -0.4358676873924587 -2.501826832594414 Q -0.4209769034196985 -2.520886332920409 -0.4023227293009658 -2.5571530089184655 Q -0.38366855518223303 -2.5934196849165216 -0.3670974247309366 -2.634776638812646 Q -0.35052629427964016 -2.6761335927087697 -0.34278881342328765 -2.7073926936235044 Q -0.3415272390552045 -2.7122309195497913 -0.33504870354857325 -2.7148820660356194 Q -0.33134668325906963 -2.716397006884664 -0.3284648177597382 -2.7159555873067527 Q -0.32558295226040673 -2.715514167728842 -0.325919021556114 -2.711054677014816 Q -0.3280207691634653 -2.695067724303464 -0.33681043833267443 -2.6677000112843636 Q -0.34560010750188347 -2.640332298265263 -0.35853321653850717 -2.608567778897786 Q -0.37146632557513093 -2.5768032595303096 -0.385535640248538 -2.5478152553799607 Q -0.3996049549219451 -2.5188272512296117 -0.41188725832543127 -2.4986742111833875 Q -0.4236227918688026 -2.4798254114218006 -0.4317203039975012 -2.4705690461888605 Q -0.43981781612619986 -2.4613126809559205 -0.44646438628068474 -2.4564317891130796 M -0.010373483828910346 -2.5558481386533844 Q -0.027326515497667125 -2.5545853175108117 -0.04238072304693513 -2.5614861026156794 Q -0.05743493059620308 -2.568386887720547 -0.06604982982078539 -2.5898061199978786 Q -0.06971009366133979 -2.5985584036208844 -0.07089863120729062 -2.6145141981326554 Q -0.07253287033297301 -2.636453415586341 -0.06855510449985086 -2.663824520404686 Q -0.06457733866672871 -2.691195625223031 -0.05900806690364552 -2.710663116382113 Q -0.06384568549533015 -2.708297224085032 -0.0761569913669971 -2.6918372195973577 Q -0.08846829723866415 -2.6753772151096835 -0.10631732447251377 -2.6524880861003632 Q -0.12416635170636336 -2.6295989570910434 -0.14600432756815573 -2.6064126936952356 Q -0.16784230342994813 -2.583226430299428 -0.19173326200188354 -2.56740802018608 Q -0.21562422057381891 -2.551589610072732 -0.2395579123414756 -2.549806803753806 Q -0.2555137068532467 -2.548618266207855 -0.2741696698468975 -2.5567549144600243 Q -0.2928256328405483 -2.564891562712194 -0.30490949551671986 -2.579033000504138 Q -0.3213537248039438 -2.597863489694523 -0.32291368033300427 -2.6188054699912224 Q -0.32491933744179635 -2.6457308732298364 -0.30862467433959684 -2.676024997319927 Q -0.2923300112373974 -2.7063191214100177 -0.2649543140134224 -2.7359345093274716 Q -0.23757861678944742 -2.765549897244925 -0.20584255295442 -2.7904762337639375 Q -0.17410648911939258 -2.8154025702829504 -0.14484215157896876 -2.8331253959131972 Q -0.11557781403854495 -2.850848221543444 -0.09700172603892637 -2.8572457956641895 Q -0.07750268447894404 -2.8647148905385422 -0.05257175555430166 -2.8665719804540903 Q -0.03861043535650194 -2.8676119508067974 -0.023391885413539815 -2.865235874706676 Q -0.008173335470577636 -2.8628597986065554 0.0023933048722547534 -2.855624737316889 Q 0.010668336514628007 -2.8522300574619215 0.016174507475909927 -2.8456208153461313 Q 0.021680678437191903 -2.839011573230341 0.022274947210167317 -2.8310336759744557 Q 0.022869215983142732 -2.82305577871857 0.01566570509437709 -2.8255275050131736 Q 0.006796404679028423 -2.8369000821240267 -0.006926289528455198 -2.8393875836190805 Q -0.02064898373593882 -2.8418750851141343 -0.03461030393373854 -2.8408351147614272 Q -0.07449979021316633 -2.83786377089655 -0.12043580023630956 -2.8083699921770697 Q -0.16637181025945283 -2.7788762134575893 -0.20166689634314175 -2.7411501362914565 Q -0.2128909062607508 -2.7302863615621367 -0.23151431986172033 -2.7043312374852375 Q -0.25013773346268986 -2.6783761134083384 -0.26493654082941076 -2.6481934147131807 Q -0.2797353481961317 -2.6180107160180226 -0.2779525418772055 -2.594077024250366 Q -0.2769868551211204 -2.581112941209552 -0.2692633590560013 -2.5716605548160487 Q -0.264754425251705 -2.5649770291036362 -0.2557792908388338 -2.565645581473234 Q -0.24181797064103405 -2.5666855518259406 -0.21949715140119913 -2.5833897737013416 Q -0.1971763321613642 -2.600093995576742 -0.17384250056409328 -2.623391684367483 Q -0.15050866896682236 -2.6466893731582233 -0.13155097918105416 -2.6681569300286867 Q -0.11259328939528596 -2.68962448689915 -0.10428670735201204 -2.699268173681619 Q -0.09967193955019318 -2.7046257774496567 -0.08636339652154051 -2.721160065533953 Q -0.07305485349288782 -2.737694353618249 -0.057438926563325665 -2.7569074435865644 Q -0.04182299963376357 -2.77612053355488 -0.029325984770541713 -2.79008744515009 Q -0.016828969907319913 -2.8040543567453 -0.012840021279377112 -2.8043514911317877 Q -0.00785383549444868 -2.804722909114897 0.003800100802441697 -2.803084077583585 Q 0.015454037099331963 -2.801445246052273 0.023803352338327144 -2.79705332904032 Q 0.032152667577322325 -2.792661412028367 0.027760750565369308 -2.784312096789372 Q 0.00465536115537446 -2.744485711311745 -0.0077190455180938256 -2.7019489735491993 Q -0.02009345219156211 -2.659412235786653 -0.021302357343592926 -2.6352556932291304 Q -0.02200246011409096 -2.6311924610045656 -0.021742467525914244 -2.627702130955116 Q -0.021482474937737472 -2.624211800905666 -0.021185340551249765 -2.620222852277723 Q -0.01821399668637269 -2.580333365998295 0.009708643709226805 -2.5824133067037094 Q 0.024667201064012212 -2.5835275606530383 0.04826102524945991 -2.603334919394329 Q 0.07185484943490755 -2.6231422781356195 0.09592592560098745 -2.650004580572432 Q 0.11999700176706735 -2.6768668830092444 0.1396919361216445 -2.70189905352578 Q 0.15938687047622158 -2.726931224042315 0.166473364572644 -2.739492338699119 Q 0.16924222525373533 -2.7427069009599414 0.17223393672469245 -2.7429297517498075 Q 0.1762228853526352 -2.743226886136295 0.17947458941176908 -2.739959406876711 Q 0.18272629347090286 -2.7366919276171267 0.18010599998305543 -2.7314828910423326 Q 0.1704734959954074 -2.7127155026537486 0.1513886056142561 -2.686224618200046 Q 0.1323037152331047 -2.659733733746343 0.1082326390670248 -2.6328714313095305 Q 0.0841615629009449 -2.606009128872718 0.0605677387154972 -2.5862017701314275 Q 0.048346491640902434 -2.5752637118054857 0.02895887547585302 -2.5662987611956543 Q 0.009571259310803548 -2.557333810585823 -0.010373483828910346 -2.5558481386533844 M 0.5195599841687453 -2.41368887929526 Q 0.47246234984098123 -2.435730041713069 0.4404810661689411 -2.4700184872113486 Q 0.408499782496901 -2.5043069327096283 0.40087502774482475 -2.548174496067657 Q 0.39325027299274845 -2.5920420594256863 0.41741077795073106 -2.6436683124388125 Q 0.4309745702078441 -2.6726514720251284 0.4548092186387825 -2.702348433724494 Q 0.492497592931848 -2.749851975099278 0.5469418563607527 -2.789513949075418 Q 0.6013861197896574 -2.829175923051558 0.6646377122442596 -2.8569875402637397 Q 0.7278893046988619 -2.8847991574759213 0.7939650610761793 -2.898592069393475 Q 0.8600408174534968 -2.912384981311028 0.9220808422739764 -2.909297049920229 Q 0.9841208670944559 -2.9062091185294303 1.0357471201075819 -2.8820486135714476 Q 1.0511444236378125 -2.8748428489348563 1.066175845381011 -2.8644960445790133 Q 1.099437715307663 -2.841201238098115 1.1075622867497918 -2.812557018107308 Q 1.1156868581919208 -2.7839127981165013 1.1033946714589122 -2.757646809741402 Q 1.0889831421857297 -2.726852202680941 1.0546456906969546 -2.705382702797245 Q 1.0203082392081795 -2.683913202913549 0.9752270570470489 -2.6713359609680762 Q 0.9301458748859184 -2.658758719022603 0.8823854956045796 -2.6546118924163093 Q 0.8346251163232408 -2.6504650658100157 0.7920381392198236 -2.653833950075321 Q 0.7494511621164064 -2.6572028343406267 0.7205259892510929 -2.66853131061556 Q 0.7028933697386828 -2.6756790885311483 0.7079797918351003 -2.686547773376017 Q 0.7105230028833089 -2.6919821157984516 0.7191653524765056 -2.6951141747871956 Q 0.727807702069702 -2.69824623377594 0.7391002554226055 -2.694065535416595 Q 0.812713786470495 -2.667343857949389 0.8910168132982899 -2.675414545008473 Q 0.9693198401260845 -2.6834852320675564 1.031596690223125 -2.7316266273733714 Q 1.045200507740226 -2.7418215353651787 1.0558462264315907 -2.7539528450036443 Q 1.0664919451229558 -2.76608415464211 1.0724261042354426 -2.778764286961123 Q 1.0817512114122079 -2.7986902091767156 1.0769996265733421 -2.8180272834517726 Q 1.0722480417344764 -2.8373643577268295 1.0441706058852325 -2.8505042814759074 Q 1.0133759988247713 -2.86491581074909 0.9630234025047286 -2.865846425508706 Q 0.9126708061846858 -2.8667770402683224 0.8512486226652434 -2.8546706216524003 Q 0.789826439145801 -2.8425642030364786 0.7244934782420338 -2.8173827769540103 Q 0.6591605173382666 -2.7922013508715415 0.5990699772329102 -2.754629726075074 Q 0.5389794371275538 -2.717058101278606 0.49198391711873807 -2.666181573300559 Q 0.4632547682154058 -2.6354629144221158 0.4488432389422232 -2.6046683073616546 Q 0.42298725995210146 -2.549419159400239 0.44894740443015035 -2.505803555556215 Q 0.47490754890819925 -2.4621879517121914 0.5355910392920491 -2.433788761673861 Q 0.5881230160422475 -2.4092043882078436 0.6595481859294738 -2.3978600016408738 Q 0.7309733558167004 -2.3865156150739044 0.8083416655469212 -2.3961278286321126 Q 0.8857099752771422 -2.4057400421903212 0.9535951279596255 -2.4446322785013885 Q 0.9580077732029819 -2.4469835679255736 0.9616306681512714 -2.4452880938934345 Q 0.9652535630995609 -2.4435926198612954 0.9667281221471751 -2.4384861851348845 Q 0.9682026811947895 -2.433379750408473 0.9637900359514331 -2.4310284609842876 Q 0.8861738690451648 -2.3878575143328846 0.8059634339312135 -2.3757110704569753 Q 0.7257529988172622 -2.3635646265810655 0.6516396510793201 -2.3750629606810496 Q 0.5775263033413779 -2.386561294781034 0.5195599841687453 -2.41368887929526 M 0.8944840719782848 -2.2241723744579462 Q 0.8627341734582481 -2.2516668092396865 0.8640082164305323 -2.2783431435925316 Q 0.8652822594028164 -2.3050194779453763 0.885575770789339 -2.3284539268530224 Q 0.904560023376731 -2.350376475831143 0.9435690414818994 -2.3748007773865747 Q 0.9825780595870675 -2.3992250789420067 1.0325950581896761 -2.423376680354473 Q 1.0826120567922848 -2.4475282817669393 1.1349475655717804 -2.469010705298546 Q 1.1872830743512761 -2.490493128830153 1.2343815479342497 -2.5059279526436575 Q 1.2814800215172235 -2.521362776457162 1.3128634352364126 -2.5285795169492546 Q 1.3435922195560366 -2.5350403074765846 1.3765888537699489 -2.5395372098052187 Q 1.4095854879838612 -2.5440341121338528 1.4411248368250653 -2.5392102677465584 Q 1.4726641856662694 -2.534386423359264 1.498366484468204 -2.512129023774046 Q 1.515753333657748 -2.4970725475840454 1.5200436405817683 -2.476821787931684 Q 1.5243339475057887 -2.4565710282793227 1.5079682125166576 -2.437672279160253 Q 1.5014219185210051 -2.4301127795126254 1.4902659114499874 -2.4225766328691876 Q 1.4791099043789695 -2.4150404862257497 1.4638974930669537 -2.409694221915593 Q 1.3483938288625084 -2.369495919024218 1.2255994108791817 -2.3567766064588307 Q 1.1028049928958548 -2.3440572938934436 0.9813392324416296 -2.3473843101658423 Q 0.9684959915890998 -2.3386635782926612 0.9579946139176472 -2.3318833816139866 Q 0.9474932362461945 -2.3251031849353114 0.9413989305197122 -2.3211207939811023 Q 0.9373698335571232 -2.3179956735568537 0.9337693718595144 -2.3138379487506584 Q 0.9301689101619056 -2.309680223944463 0.9268957631640794 -2.3059004741206492 Q 0.9111846575745135 -2.2877576749663424 0.9054489281004414 -2.2689135404040908 Q 0.8997131986263693 -2.2500694058418387 0.9140762479568622 -2.237631447250099 Q 0.9276833473225922 -2.2258481180579244 0.9591720358811976 -2.2217295633527945 Q 0.990660724439803 -2.217611008647664 1.0277644231773118 -2.219212738960853 Q 1.0648681219148206 -2.2208144692740426 1.0972101267291676 -2.224555421637914 Q 1.1295521315435146 -2.2282963740017854 1.1448658634207278 -2.2322320589476146 Q 1.149097601513712 -2.232536020643207 1.1513654514080003 -2.2305721324445114 Q 1.1543892512670513 -2.22795361484625 1.1536606085806973 -2.223293241488286 Q 1.1529319658943433 -2.218632868130322 1.1467363396026635 -2.216061056540441 Q 1.1280481401624267 -2.209756201135126 1.0950515059485144 -2.205259298806492 Q 1.0620548717346021 -2.2007623964778578 1.0249511729970933 -2.1991606661646683 Q 0.9878474742595845 -2.197558935851479 0.9565107665487754 -2.1995616215101172 Q 0.9186744708506939 -2.203224233671859 0.8944840719782848 -2.2241723744579462 M 1.0181077079309182 -2.36845749716244 Q 1.0638541709806002 -2.363236279062793 1.1220152396178318 -2.3677683972182737 Q 1.1801763082550634 -2.372300515373754 1.2421131724418901 -2.3834842023643033 Q 1.3040500366287169 -2.394667889354852 1.3600406216626388 -2.4096780321775952 Q 1.416031206696561 -2.4246881750003384 1.456680752574861 -2.441077635634782 Q 1.4684173757586554 -2.4454653088497813 1.475871600566867 -2.450254310051352 Q 1.4833258253750785 -2.4550433112529224 1.4879082311720353 -2.4603349610062617 Q 1.5003461897637749 -2.4746980103367546 1.4882509903275702 -2.4851720807297983 Q 1.4776676908208914 -2.494336892323712 1.4519733005673943 -2.4967448602431404 Q 1.383657567688464 -2.5003449492996266 1.3060056436378527 -2.4809431789876655 Q 1.2283537195872412 -2.461541408675705 1.1540062040870835 -2.4306796695971333 Q 1.079658688586926 -2.399817930518562 1.0181077079309182 -2.36845749716244 M 1.1784614259410204 -1.8971633161912735 Q 1.1680986069836043 -1.9118810600148295 1.166579856160528 -1.9279338914142246 Q 1.1650611053374518 -1.9439867228136196 1.1790194737494695 -1.9623759574707331 Q 1.1825320237583785 -1.9660721707268796 1.1869831963371003 -1.9710407784467983 Q 1.191434368915822 -1.976009386166717 1.197157935958316 -1.9800393713168232 Q 1.216781594389724 -1.9938564632600444 1.2450532964969396 -2.005813087363898 Q 1.2733249986041555 -2.0177697114677517 1.2942837446114026 -2.0227427352766334 Q 1.289527938650273 -2.0242862085222986 1.2698707256183501 -2.022675626075604 Q 1.2502135125864273 -2.0210650436289086 1.223180650342469 -2.0203763064517686 Q 1.1961477880985107 -2.0196875692746286 1.1670999332794993 -2.0218606156187358 Q 1.138052078460488 -2.024033661962843 1.11381830662571 -2.033265362925283 Q 1.0895845347909319 -2.042497063887723 1.0757674428477106 -2.0621207223191313 Q 1.0665560482188965 -2.075203161273403 1.0609613964339046 -2.0987817505315562 Q 1.0553667446489126 -2.1223603397897093 1.0626920619601758 -2.1397482587649432 Q 1.070017379271439 -2.1571361777401776 1.089641037702847 -2.1709532696833986 Q 1.1133529583074648 -2.1876489224481244 1.1490462254385254 -2.196881510466159 Q 1.184739492569586 -2.2061140984841936 1.2207833088948636 -2.20703241472038 Q 1.2329898183913899 -2.2070659693208947 1.2496183619550858 -2.2077670677093293 Q 1.2662469055187817 -2.208468166097764 1.2800136655612309 -2.2071542719111448 Q 1.2937804256036798 -2.205840377724526 1.2969009266955251 -2.2031454801502592 Q 1.307080082405704 -2.1956364995917586 1.3162914770345182 -2.1825540606374867 Q 1.3260785838276332 -2.168653969248573 1.3274136714034723 -2.159809901114233 Q 1.3289906992496525 -2.1523591975788365 1.3257200895110843 -2.150056348921633 Q 1.3216318273378744 -2.1471777881001284 1.3104849105463314 -2.1491133102628575 Q 1.2959755523926015 -2.1523503654009106 1.2686839725780448 -2.1563715183730907 Q 1.241392392763488 -2.1603926713452712 1.2078474495539455 -2.1593993007857235 Q 1.1743025063444033 -2.1584059302261758 1.1395937775949645 -2.1486435458556494 Q 1.1117600402166217 -2.1412758417659457 1.0954069915237816 -2.129761598479928 Q 1.0667891563113117 -2.1096116727293968 1.0829090969117365 -2.086717404559421 Q 1.0967261888549578 -2.067093746128013 1.1286234659839216 -2.0565313736786965 Q 1.1605207431128854 -2.0459690012293805 1.198913323907176 -2.041814516910735 Q 1.2373059047014667 -2.0376600325920897 1.272411098456932 -2.037305954364504 Q 1.307516292212397 -2.0369518761369183 1.3277492174086207 -2.037744806148971 Q 1.3449534731366177 -2.0376282521027638 1.3701382287525026 -2.040073264284358 Q 1.3953229843683879 -2.0425182764659526 1.4194022314674803 -2.044796402700567 Q 1.443481478566573 -2.0470745289351817 1.455687988063099 -2.0471080835356967 Q 1.4597179732132055 -2.0413845164932027 1.4660216685089633 -2.0280892757801414 Q 1.4723253638047211 -2.01479403506708 1.4734644269220283 -2.0027544115175338 Q 1.4746034900393357 -1.9907147879679874 1.4643660573060533 -1.9896216406624896 Q 1.452735259973828 -1.9887704336273326 1.428368156792585 -1.986901133610039 Q 1.4040010536113416 -1.9850318335927455 1.3792251242127778 -1.9828746774933015 Q 1.3544491948142137 -1.9807175213938575 1.3397897280137614 -1.97895683030044 Q 1.2883606240770082 -1.9720977291740072 1.240995059890876 -1.9473085515085542 Q 1.237148737988007 -1.9458233552859927 1.23428695446676 -1.9438083627109397 Q 1.231425170945513 -1.9417933701358865 1.228154561206945 -1.939490521478683 Q 1.195448463821265 -1.9164620349066475 1.210992692257389 -1.8943854191713136 Q 1.2196283747219023 -1.8821206326516835 1.2487389226529804 -1.8720421407430494 Q 1.2778494705840586 -1.8619636488344153 1.313547153804082 -1.8546886634239246 Q 1.3492448370241055 -1.8474136780134338 1.3808374807706616 -1.8433633865297017 Q 1.4124301245172175 -1.8393130950459693 1.4268476510473287 -1.8396804215404439 Q 1.4304520326798564 -1.8397722531640626 1.4327548813370599 -1.8365016434254946 Q 1.4350577299942635 -1.8332310336869266 1.4340440531010898 -1.829459766107419 Q 1.433030376207916 -1.8256884985279114 1.4272149775418033 -1.825262895010333 Q 1.4081334766741813 -1.8228346601289958 1.3749055280583413 -1.8257335272841262 Q 1.3416775794425013 -1.8286323944392566 1.3058589260873072 -1.835210697550276 Q 1.2700402727321132 -1.8417890006612954 1.2409297248010351 -1.8518674925699297 Q 1.2252689423187035 -1.8567398525772667 1.2076223057728708 -1.86877506003785 Q 1.189975669227038 -1.8808102674984335 1.1784614259410204 -1.8971633161912735 M 1.2610598147280307 -1.7014271285386904 Q 1.257945883253538 -1.7109299402684977 1.255642638108934 -1.724381522398636 Q 1.2533393929643302 -1.7378331045287745 1.2530763050087796 -1.7482700957009296 Q 1.252813217053229 -1.7587070868730847 1.2547137793991905 -1.7593298731679832 Q 1.2566143417451519 -1.7599526594628818 1.2609979984053912 -1.7513920780407388 Q 1.2653816550656305 -1.7428314966185958 1.2728550906044132 -1.7200247484670583 Q 1.2806399192906452 -1.6962677191425402 1.3017045318026583 -1.6721268388827246 Q 1.3227691443146712 -1.647985958622909 1.3473315392364742 -1.6276220504590673 Q 1.3718939341582772 -1.6072581422952255 1.390164059208563 -1.5932509109254323 Q 1.4204120394376174 -1.5715931249798945 1.4631613206238296 -1.5519271910315116 Q 1.5059106018100419 -1.5322612570831284 1.5489202408190923 -1.5326747208797995 Q 1.556194995324856 -1.532953910565983 1.5685325488429727 -1.5338397848164322 Q 1.5808701023610892 -1.5347256590668814 1.592273476436858 -1.5384623768362728 Q 1.602726569339646 -1.5418877014582149 1.6086081055472043 -1.5480242747560073 Q 1.6144896417547625 -1.5541608480538 1.6110643171328205 -1.564613940956588 Q 1.604836454183835 -1.5836195644162026 1.5876884086108873 -1.6006252850133462 Q 1.5705403630379398 -1.6176310056104897 1.550689119654458 -1.6316462878455993 Q 1.5308378762709767 -1.645661570080709 1.5141247169579373 -1.6549173955855985 Q 1.5018354686317192 -1.6635182313343235 1.4794367240114283 -1.6740679346209089 Q 1.4570379793911374 -1.6846176379074942 1.4309938066526482 -1.693446628017792 Q 1.404949633914159 -1.7022756181280898 1.3814046572205805 -1.7050834771877377 Q 1.357859680527002 -1.7078913362473853 1.3426390800286776 -1.6997468092218053 Q 1.339460741631653 -1.6966006742860467 1.3266560983923625 -1.6971402217950686 Q 1.3138514551530722 -1.6976797693040906 1.31042613053113 -1.7081328622068785 Q 1.3076235922040864 -1.7166853927637051 1.3200416543753675 -1.7333824503461117 Q 1.3254641517270684 -1.742525563736571 1.3492211810515866 -1.7503103924228032 Q 1.3710776480301434 -1.7574724348141366 1.3982922054378695 -1.7611286439303635 Q 1.4255067628455955 -1.7647848530465906 1.442907115376065 -1.7662774118613054 Q 1.4283898098258034 -1.7720435058217212 1.413225565384694 -1.7749668071285114 Q 1.3980613209435846 -1.7778901084353016 1.366191968054752 -1.791650353580177 Q 1.361145270773032 -1.7942059056823028 1.3595883050357858 -1.7989573115472064 Q 1.3574085530036406 -1.8056092797580716 1.3650108023874865 -1.8081004249376658 Q 1.3707124894253708 -1.8099687838223615 1.3757591867070909 -1.8074132317202358 Q 1.4306822739723786 -1.7875271942755964 1.4691955442067597 -1.7743655828296703 Q 1.5077088144411408 -1.7612039713837442 1.5228811097475667 -1.7598617884101497 Q 1.5453281595597563 -1.7587987951227388 1.5808912457586857 -1.7562459731533253 Q 1.616454331957615 -1.7536931511839118 1.6573835594510302 -1.7492156142725874 Q 1.6983127869444452 -1.744738077361263 1.737652845239348 -1.7386874729820594 Q 1.776992903534251 -1.732636868602856 1.806993897538388 -1.7245783104958647 Q 1.8335212617286838 -1.7174861352924875 1.8620807322427166 -1.705798250797931 Q 1.8906402027567495 -1.6941103663033745 1.9131543896241827 -1.6751799307643203 Q 1.935668576491616 -1.6562494952252658 1.9446989777676453 -1.6286913412088246 Q 1.9481243023895873 -1.6182382483060367 1.9493215697874857 -1.6049504136149393 Q 1.9496329629349352 -1.6040001324419586 1.9489779731787709 -1.5995762214551372 L 1.9492410611343214 -1.589139230282982 Q 1.9489135662562393 -1.5869272747895713 1.9492249594036886 -1.5859769936165906 Q 1.9495363525511378 -1.58502671244361 1.9488974645256063 -1.5837650381231798 Q 1.9414616927135138 -1.5518634817730816 1.912953257524092 -1.5425216873496033 Q 1.8901465093725545 -1.5350482518108204 1.8566557838239441 -1.5409109561550336 Q 1.8256884069161938 -1.5454958844481839 1.7811942599577448 -1.564063891515178 Q 1.7367001129992958 -1.5826318985821721 1.6884531465408226 -1.6094410430585437 Q 1.6402061800823493 -1.6362501875349151 1.5941872708479197 -1.6658940737995958 Q 1.54816836161349 -1.6955379600642766 1.5144628533012277 -1.7213243655798194 Q 1.493293579540101 -1.7249107075080903 1.4670454050359885 -1.7247281282057039 Q 1.4407972305318761 -1.7245455489033177 1.4154832354701115 -1.7215121260819894 Q 1.4492692524355382 -1.7115369038984038 1.4831868133787403 -1.696343186128741 Q 1.5171043743219423 -1.681149468359078 1.5382253428911705 -1.6680764164316326 Q 1.5725858409595972 -1.6467139219029114 1.596501296990552 -1.6235072210854438 Q 1.6204167530215074 -1.600300520267976 1.6282015817077395 -1.576543490943458 Q 1.6319382994771308 -1.5651401168676893 1.6297854301736474 -1.5460190511609322 Q 1.627632560870164 -1.526897985454175 1.6202692468459194 -1.5092264941028386 Q 1.612905932821675 -1.491555002751502 1.6002247826948435 -1.4852949363412506 Q 1.5973739391759012 -1.4843607568989028 1.595153932817174 -1.4831071334437893 Q 1.5929339264584468 -1.4818535099886756 1.5900830829395045 -1.4809193305463277 Q 1.564425491269025 -1.4725117155651972 1.5331467212138252 -1.4780469250313282 Q 1.5018679511586257 -1.4835821344974591 1.4711045760164987 -1.4971786322032936 Q 1.4403412008743715 -1.5107751299091279 1.4137064453022496 -1.52782915569817 Q 1.3870716897301276 -1.5448831814872124 1.3688015646798417 -1.5588904128570056 Q 1.3332115957522508 -1.5872162687440412 1.3042977476314743 -1.622465231662809 Q 1.2753838995106979 -1.6577141945815768 1.2610598147280307 -1.7014271285386904 M 1.555899424842399 -1.7233269985750026 Q 1.5987319448144879 -1.6889558590413674 1.6520175576893648 -1.6580100441296746 Q 1.7053031705642416 -1.6270642292179816 1.760365852672621 -1.6035408145204604 Q 1.8154285347810004 -1.5800173998229394 1.8599629360660317 -1.569354984421924 Q 1.8874405814293083 -1.5625742023659956 1.909297048407865 -1.5697362447573293 Q 1.919750141310653 -1.5731615693792713 1.9254759809444868 -1.5797732832635543 Q 1.9312018205783206 -1.5863849971478372 1.9280878891038276 -1.5958878088776445 Q 1.9259081370716826 -1.6025397770885095 1.9191487774789915 -1.6103218756420294 Q 1.9123894178863003 -1.6181039741955492 1.899461281534551 -1.6254431356238443 Q 1.8559737718062979 -1.655390364170658 1.7991501221950488 -1.6746536153203986 Q 1.7423264725837995 -1.6939168664701392 1.6802440730598907 -1.705142981976126 Q 1.6181616735359818 -1.7163690974821126 1.555899424842399 -1.7233269985750026" fill="#595959" fill-rule="nonzero"></path></g><g transform="matrix(1,0,0,1,0,0)"><g transform="matrix(1,0,0,1,0,0)" clip-path="url(#SvgjsClipPath20844)"><g clip-path="url(#af3be5aba-cb38-441c-b627-11b6d86dce508fb38250-a803-4cee-8287-fc10b804e63b)"><path d=" M 0.9838845104785432 -1.1713816768464955 C 0.9838845104785432 -0.6279896790288908 0.5433948314496526 -0.1875 0.0000028336320476718413 -0.1875 C -0.5433891641855572 -0.1875 -0.9838788432144479 -0.6279896790288906 -0.9838788432144479 -1.1713816768464955 C -0.9838788432144479 -1.7147736746641005 -0.5433891641855572 -2.155263353692991 0.0000028336320476718413 -2.155263353692991 C 0.5433948314496526 -2.155263353692991 0.9838845104785432 -1.7147736746641005 0.9838845104785432 -1.1713816768464955" fill="#595959" transform="matrix(1,0,0,1,0,0)" fill-rule="nonzero"></path></g><g clip-path="url(#af3be5aba-cb38-441c-b627-11b6d86dce508fb38250-a803-4cee-8287-fc10b804e63b)"><path d=" M 0.19716875802721345 -1.480088633212638 C 0.1914297040344619 -1.480088633212638 0.18592570675179676 -1.4823684635343826 0.18186758275592618 -1.4864265875302531 C 0.1778094587600556 -1.4904847115261235 0.1755296284383112 -1.4959887088087886 0.1755296284383112 -1.5017277628015404 L 0.1755296284383112 -1.65985009134354 C 0.17541293302585714 -1.7678982792446236 0.0878516774746132 -1.8554595347958707 -0.02019651042647419 -1.8555762302083285 C -0.1282446983275649 -1.8554595347958727 -0.2158059538788103 -1.7678982792446272 -0.21592264929126637 -1.65985009134354 L -0.21592264929126637 -1.5017277628015404 C -0.21592264929126637 -1.4897651078301029 -0.2256202972253546 -1.4800674598960146 -0.23758295219679204 -1.4800674598960146 C -0.24954560716822938 -1.4800674598960146 -0.2592432551023176 -1.4897651078301029 -0.2592432551023176 -1.5017277628015404 L -0.2592432551023176 -1.65985009134354 C -0.2591032155552522 -1.7918139131183237 -0.15216033220129166 -1.8987567964722978 -0.02019651042649273 -1.8988968360193799 C 0.11176043829870297 -1.898756756272526 0.21869118584075653 -1.7918070628148914 0.21880788761611591 -1.65985009134354 L 0.21880788761611591 -1.5017277628015404 C 0.2188078877370574 -1.4959887092647992 0.2165280575313011 -1.4904847119340903 0.21246993362094924 -1.4864265878527012 C 0.20841180971059714 -1.4823684637713122 0.20290781247597578 -1.4800886333335797 0.19716875848322402 -1.480088633212638" fill="#876a57" transform="matrix(1,0,0,1,0,0)" fill-rule="nonzero"></path></g><g clip-path="url(#af3be5aba-cb38-441c-b627-11b6d86dce508fb38250-a803-4cee-8287-fc10b804e63b)"><path d=" M 0.07859818493733717 -1.5986592063025142 L -0.11903355242353897 -1.5986592063025142 C -0.1309962073949763 -1.5986592063025142 -0.14069385532906453 -1.6083568542366025 -0.14069385532906453 -1.6203195092080398 C -0.14069385532906453 -1.6322821641794771 -0.13099620739497642 -1.6419798121135654 -0.11903355242353897 -1.6419798121135654 L 0.07859818493733717 -1.6419798121135654 C 0.09056083990877473 -1.6419798121135654 0.10025848784286273 -1.6322821641794771 0.10025848784286273 -1.6203195092080398 C 0.10025848784286273 -1.6083568542366025 0.09056083990877473 -1.5986592063025142 0.07859818493733717 -1.5986592063025142" fill="#876a57" transform="matrix(1,0,0,1,0,0)" fill-rule="nonzero"></path></g><g clip-path="url(#af3be5aba-cb38-441c-b627-11b6d86dce508fb38250-a803-4cee-8287-fc10b804e63b)"><path d=" M 0.3948004953880897 -0.630318743857442 L -0.43523586287429117 -0.630318743857442 C -0.490822081520369 -0.6303887370805927 -0.5358661635110424 -0.6754328190712664 -0.5359361567341933 -0.7310190377173442 L -0.5358938101009469 -0.7319930102820109 L -0.4963844012820703 -1.6212723084560836 C -0.4959065865363084 -1.6328676519785184 -0.4863504100311956 -1.642012407968734 -0.4747452716931677 -1.6419798121135656 L -0.23760412551341514 -1.6419798121135656 C -0.2256414705419777 -1.6419798121135656 -0.21594382260788958 -1.6322821641794776 -0.21594382260788958 -1.62031950920804 C -0.21594382260788958 -1.6083568542366025 -0.2256414705419777 -1.5986592063025147 -0.23760412551341514 -1.5986592063025147 L -0.45403776803568585 -1.5986592063025147 L -0.4926155509231421 -0.7305955713848804 C -0.4923369718217771 -0.6990904825706101 -0.46674215088386795 -0.6736845533001399 -0.43523586287429084 -0.6736393496684934 L 0.3948004953880897 -0.6736393496684934 C 0.4263063905233997 -0.6736393496684934 0.45196845027070864 -0.6991320228828166 0.45218018343694055 -0.7305955713848804 L 0.4136024005494843 -1.5986592063025142 L 0.19716875802721345 -1.5986592063025142 C 0.18520610305577634 -1.5986592063025147 0.1755084551216881 -1.6083568542366025 0.1755084551216881 -1.62031950920804 C 0.1755084551216881 -1.6322821641794776 0.18520610305577612 -1.6419798121135656 0.19716875802721345 -1.6419798121135656 L 0.43430990420696647 -1.6419798121135656 C 0.44591504254499426 -1.642012407968734 0.4554712190501071 -1.6328676519785184 0.4559490337958687 -1.6212723084560836 L 0.4955007892479917 -0.7319930102820109 L 0.4955007892479917 -0.731019037717344 C 0.4954307960248412 -0.6754328190712671 0.4503867140341682 -0.6303887370805934 0.39480049538809037 -0.630318743857442" fill="#876a57" transform="matrix(1,0,0,1,0,0)" fill-rule="nonzero"></path></g><g clip-path="url(#af3be5aba-cb38-441c-b627-11b6d86dce508fb38250-a803-4cee-8287-fc10b804e63b)"><path d=" M -0.19805237006129228 -1.4819942317087254 C -0.197580216128723 -1.4675780641021268 -0.2050016598382316 -1.454050236230438 -0.21741367277190493 -1.4467023962259264 C -0.22982568570557838 -1.4393545562214147 -0.2452555254215132 -1.4393545562214147 -0.25766753835518663 -1.4467023962259264 C -0.2700795512888601 -1.454050236230438 -0.27750099499836867 -1.4675780641021268 -0.27702884106579917 -1.4819942317087254 C -0.2763310479222093 -1.5032997895338749 -0.25885758728029074 -1.520210333860296 -0.23754060556354584 -1.520210333860296 C -0.21622362384680094 -1.520210333860296 -0.19875016320488226 -1.5032997895338749 -0.19805237006129228 -1.4819942317087254" fill="#876a57" transform="matrix(1,0,0,1,0,0)" fill-rule="nonzero"></path></g><g clip-path="url(#af3be5aba-cb38-441c-b627-11b6d86dce508fb38250-a803-4cee-8287-fc10b804e63b)"><path d=" M 0.23672051347933665 -1.4819942317087254 C 0.2371926674119058 -1.4675780641021268 0.22977122370239722 -1.454050236230438 0.2173592107687239 -1.4467023962259264 C 0.20494719783505055 -1.4393545562214147 0.18951735811911563 -1.4393545562214147 0.17710534518544208 -1.4467023962259264 C 0.16469333225176874 -1.454050236230438 0.15727188854226015 -1.4675780641021268 0.15774404247482954 -1.4819942317087254 C 0.15844183561841962 -1.5032997895338749 0.17591529626033808 -1.520210333860296 0.1972322779770832 -1.520210333860296 C 0.21854925969382788 -1.520210333860296 0.23602272033574656 -1.5032997895338749 0.23672051347933665 -1.4819942317087254" fill="#876a57" transform="matrix(1,0,0,1,0,0)" fill-rule="nonzero"></path></g><g clip-path="url(#af3be5aba-cb38-441c-b627-11b6d86dce508fb38250-a803-4cee-8287-fc10b804e63b)"><path d=" M 0.07402474854672758 -0.8880403537949373 L -0.005586921956475033 -1.006314500452089 C -0.006086987093222196 -1.0084568152556623 -0.006992565790437055 -1.0104835866256192 -0.008254759850997329 -1.0122853757398294 L -0.08257310119840189 -1.1227677418796462 C -0.06195029080741277 -1.145889003632172 -0.05902837311341225 -1.1799356967622652 -0.07583998651222679 -1.2050049036441246 L -0.13847065708362927 -1.297998110253185 C -0.1411951151427172 -1.3021306780625401 -0.14546483523359155 -1.3049962272653755 -0.15032157815409253 -1.3059516521021957 C -0.15517832107459362 -1.3069070769390154 -0.16021530756825686 -1.305872355261007 -0.16430210336392392 -1.3030797062427508 C -0.16840289135024122 -1.3003180585930458 -0.17123797775530958 -1.2960398292900628 -0.1721831258626625 -1.2911870100161753 C -0.1731282739700154 -1.2863341907422874 -0.1721059862651333 -1.2813046889039788 -0.16934135272024364 -1.2772059133292102 L -0.10675302878208737 -1.1841703600869036 C -0.10120308625195029 -1.175739749252632 -0.10049539307764532 -1.1650117640876005 -0.10488977691924661 -1.1559251557115653 L -0.17552396117421587 -1.260902459529352 C -0.18120830726717374 -1.2693440138159242 -0.19261438998034752 -1.271662936417115 -0.20114367428827828 -1.2661110954186574 C -0.20522968314869672 -1.2633713405893476 -0.20804002358733276 -1.2591013641227975 -0.20894038091711797 -1.254264931386695 C -0.2098407382469032 -1.2494284986505924 -0.20875522293655635 -1.2444332640297835 -0.20592884384511978 -1.240406689038102 L -0.13537935285664338 -1.1355564251200543 C -0.1453618950105382 -1.1350972512090796 -0.15488500852100562 -1.1397789160724467 -0.1606179462714885 -1.147963988661245 L -0.22320627020964467 -1.2409571952703051 C -0.2274136641276291 -1.2471830702861775 -0.2349490446938397 -1.250272342389575 -0.24231592816758374 -1.2487915617918375 C -0.24968281164132766 -1.2473107811941002 -0.2554392443737974 -1.2415497878246362 -0.2569141902737667 -1.2341817339508836 C -0.2578926236851278 -1.2293315920759125 -0.2568694103040532 -1.224291884378083 -0.25407696584625894 -1.2202073449795767 L -0.19148864190810277 -1.1271717917372701 C -0.17471937514253455 -1.1022296247551497 -0.14219716080931122 -1.0921087794092639 -0.11306267713579887 -1.1023566646548888 L -0.03865964252190146 -0.9917896052485791 C -0.03783112776133346 -0.9905680156728243 -0.03684911857296247 -0.9894579183294485 -0.03573772482790094 -0.9884865678553612 L 0.044974958139707866 -0.8685185558683541 C 0.04827775386011446 -0.8629031242226988 0.05442196928056808 -0.8595821878664915 0.06092915496007145 -0.8598953438503549 C 0.06743634063957504 -0.8602084998342183 0.0732332628605119 -0.8641040991692794 0.0759815630767029 -0.870010737643018 C 0.07872986329289344 -0.8759173761167567 0.07797626283619774 -0.8828608685929238 0.07402474854672758 -0.8880403537949373" fill="#876a57" transform="matrix(1,0,0,1,0,0)" fill-rule="nonzero"></path></g><g clip-path="url(#af3be5aba-cb38-441c-b627-11b6d86dce508fb38250-a803-4cee-8287-fc10b804e63b)"><path d=" M 0.1522813267860461 -1.2904604095353285 C 0.1128989578669084 -1.3162918558156231 0.05331724488924561 -1.2954149656251555 0.01943993829213797 -1.2438791129643056 C 0.0036446440912367706 -1.219783878647113 -0.004443562858822636 -1.1923856069367023 -0.0033425503944167767 -1.1668505870891324 C -0.002453271096242715 -1.145973696898665 0.004449230122918091 -1.1278916845024587 0.016518020598137673 -1.114594841663094 C 0.018084846028253665 -1.1129009763332387 0.01986340462460201 -1.1112071110033832 0.021853696387182042 -1.1094708990402815 L -0.035483645028422495 -1.014910867001105 C -0.03623347788204401 -1.013630011760631 -0.03683041289307698 -1.0122655888782697 -0.03726220362477073 -1.0108455902094522 L -0.11225809110411744 -0.8872357677632561 C -0.11670211091022475 -0.8790166197230815 -0.11391916174264083 -0.8687564620648869 -0.10593107764767618 -0.8639093785051417 C -0.09794299355271152 -0.8590622949453965 -0.08755718471339091 -0.8613317918044934 -0.08231902139892355 -0.869069062100557 L -0.008424146383982811 -0.9909850192168979 C -0.006693052791225673 -0.9923413032575381 -0.005228503451385369 -0.994006869173435 -0.00410478979285156 -0.9958972286734786 L 0.055053456852347304 -1.0934638716731482 C 0.07045744316285685 -1.090899069404807 0.08627064276554441 -1.0926430645417113 0.1007454741251963 -1.0985031210294678 C 0.1246289752761569 -1.107649993810687 0.1465221846645377 -1.1259437393731249 0.16235982549868555 -1.150081320323564 C 0.19619478546254654 -1.201617172984414 0.1916636957051836 -1.2645866166217878 0.1522813267860461 -1.2904604095353285 M 0.13309830192543393 -1.1692643451841764 C 0.12128359124969257 -1.1512670260544628 0.10536125714905209 -1.13771610341562 0.08825321731751279 -1.1311947218956768 C 0.07313546924855352 -1.125393233140922 0.05911873364400044 -1.125943739373125 0.04874380849863624 -1.1327192006925466 C 0.03841122998651825 -1.1395370086452146 0.032313314799039095 -1.1521986519858833 0.031593422033850516 -1.168332719252756 C 0.03083118263541551 -1.1866688114484405 0.03688675118964846 -1.206656422340734 0.04870146186538982 -1.2246960881036935 C 0.05975393314269595 -1.241507701502508 0.07542218744385831 -1.255058624141351 0.09164094797722333 -1.2618340854607726 C 0.10760562871111023 -1.2685248535137013 0.12229991044760591 -1.2682707737142231 0.13309830192543393 -1.2611988859620769 C 0.13533561366290314 -1.2597345560376096 0.13737145728819322 -1.2579834457864858 0.13915387047966687 -1.2559902500727715 C 0.15600783051172784 -1.2374847713441015 0.1534246858836983 -1.2002197340872833 0.13309830192543393 -1.1692643451841764" fill="#876a57" transform="matrix(1,0,0,1,0,0)" fill-rule="nonzero"></path></g></g></g></g><defs><clipPath id="SvgjsClipPath20844"><path d=" M -0.9838788432144479 -2.1552576864288957 h 1.9677576864288957 v 1.9677576864288957 h -1.9677576864288957 Z"></path></clipPath><clipPath id="af3be5aba-cb38-441c-b627-11b6d86dce508fb38250-a803-4cee-8287-fc10b804e63b"><path d=" M -0.9838788432144479 -0.1875 L 0.9838845104785432 -0.1875 L 0.9838845104785432 -2.155263353692991 L -0.9838788432144479 -2.155263353692991 Z"></path></clipPath></defs></svg>