<svg xmlns="http://www.w3.org/2000/svg" version="1.1" xmlns:xlink="http://www.w3.org/1999/xlink" xmlns:svgjs="http://svgjs.dev/svgjs" viewBox="0 0 5.794977869504426 4.568682603203487"><g transform="matrix(0.8410185302833764,0,0,0.8410185302833764,2.8975958257127337,4.000037702705559)"><rect width="6.658616242230085" height="6.658616242230085" x="-3.329435218148784" y="-5.3693302363539575" fill="#b9625d"></rect><g transform="matrix(1,0,0,1,0,0)"><path d=" M -1.660515330413008 -1.4264813551171962 L -2.353071483093812 -1.5282947893189895 L -2.3091462586238953 -1.8270833009041363 Q -2.2995467062562978 -1.8923814524426121 -2.2623751684822744 -1.9389703650669088 Q -2.2252036307082506 -1.9855592776912054 -2.1693204454474557 -2.008171654945879 Q -2.113437260186661 -2.0307840322005517 -2.049128474580586 -2.0213299275960996 Q -1.981851591177308 -2.011439479702211 -1.9333566705697818 -1.9734823634356962 Q -1.8848617499622558 -1.9355252471691813 -1.8616819658598092 -1.880064020993014 Q -1.8385021817573626 -1.824602794816847 -1.8481017341249601 -1.7593046432783712 L -1.8673008388601555 -1.6287083402014195 L -1.6357892106782868 -1.5946735636253915 L -1.660515330413008 -1.4264813551171962 M -2.015152706077363 -1.6474119591128835 L -1.9990080043682215 -1.757231577609411 Q -1.9958081535790222 -1.7789976281222364 -2.0040731190988175 -1.7984061403000564 Q -2.0123380846186123 -1.8178146524778769 -2.0295361119396347 -1.8314611852340523 Q -2.046734139260657 -1.845107717990228 -2.071468287570686 -1.8487439120688633 Q -2.0971918018131155 -1.8525255539106444 -2.1166003139909355 -1.8442605883908492 Q -2.136008826168756 -1.8359956228710543 -2.148520545229385 -1.8196415137192878 Q -2.161032264290014 -1.8032874045675213 -2.1642321150792134 -1.781521354054696 L -2.180376816788355 -1.6717017355581685 L -2.015152706077363 -1.6474119591128835 M -1.5171608924902136 -2.0626443050454863 L -1.9965483513184097 -2.2910051254990935 L -1.9277390645527277 -2.435453324016064 L -1.4483516057245316 -2.207092503562457 L -1.5171608924902136 -2.0626443050454863 M -2.0569378382123307 -2.4083853191975577 Q -2.0762904501151787 -2.36775926336466 -2.106667156869177 -2.353984079635156 Q -2.137043863623176 -2.3402088959056524 -2.173155913252418 -2.3574112175970727 Q -2.205656757918737 -2.3728933071193516 -2.215239677356128 -2.4062574743509257 Q -2.224822596793519 -2.4396216415825003 -2.2059000429329565 -2.479344896174667 Q -2.1865474310301085 -2.519970952007565 -2.156385753297253 -2.5332947351167032 Q -2.126224075564397 -2.5466185182258414 -2.0910148271758855 -2.5298462545767064 Q -2.057611181268836 -2.5139341070121426 -2.047813232810302 -2.4810213404009334 Q -2.038015284351768 -2.4481085737897246 -2.0569378382123307 -2.4083853191975577 M -1.3932223835245632 -2.3267613183515707 L -1.4630481778730404 -2.3866642268252347 L -1.5541820622706004 -2.8364003884962887 L -1.5139563329176733 -2.801891104266895 L -1.6975717697608608 -2.587859865068302 L -1.7962386530793613 -2.6725052792158706 L -1.5097464821183595 -3.006454730447718 L -1.4368847836677745 -2.943947347692591 L -1.3443328569955222 -2.5127581306784657 L -1.3818502284512244 -2.53967368081319 L -1.1995370287487688 -2.7521869679607294 L -1.1008701454302683 -2.6675415538131606 L -1.3932223835245632 -2.3267613183515707 M -1.0201738518023193 -2.734076736560397 L -1.0666802625105984 -2.8134565435835492 L -1.0063565135526429 -3.2683510866500245 L -0.9795647769489604 -3.2226214152127737 L -1.2228811419547092 -3.0800691563026144 L -1.2885967223033643 -3.192236274922286 L -0.9089541669752454 -3.414658239179272 L -0.8604257384100847 -3.3318271361985916 L -0.9133676766337336 -2.8940062239786255 L -0.9400721779454015 -2.93167410963332 L -0.6984814609184167 -3.0732153596150384 L -0.6327658805697616 -2.961048240995367 L -1.0201738518023193 -2.734076736560397 M -0.32999962637174884 -3.029155696353857 Q -0.3960895123789288 -3.0181499266143996 -0.4537077786644167 -3.0445437779865396 Q -0.5113260449499045 -3.0709376293586796 -0.5521715236803323 -3.12749642060533 Q -0.5930170024107602 -3.1840552118519803 -0.6059939547901203 -3.261982092367909 Q -0.6192994376094643 -3.3418818053019628 -0.5989049787680281 -3.4081318320835794 Q -0.5785105199265919 -3.4743818588651965 -0.5310754599469354 -3.518269956166474 Q -0.4836403999672789 -3.5621580534677513 -0.4155776815419741 -3.5734923536471923 Q -0.3780938655976034 -3.5797344320068847 -0.34521483759222726 -3.574058208136943 Q -0.31233580958685114 -3.5683819842670017 -0.2854586487795117 -3.553089233470091 Q -0.2585814879721724 -3.53779648267318 -0.2376236493083183 -3.5154353780819516 Q -0.21666581064446422 -3.493074273490723 -0.20401078959220004 -3.465782325187849 L -0.23721958537122645 -3.4643072377643653 L -0.25791700309020593 -3.588595680106226 L -0.10107682584928618 -3.6147138500849385 L -0.013851994033586945 -3.0909268430728107 L -0.17365141990169386 -3.064315877434123 L -0.19467736806065716 -3.190577152194108 L -0.15933064975440303 -3.1974771163228795 Q -0.16262255326712893 -3.1685433407091974 -0.17627141453045442 -3.140926161522783 Q -0.1899202757937799 -3.1133089823363695 -0.21244605804955585 -3.0902961786443948 Q -0.23497184030533186 -3.06728337495242 -0.26473024157541736 -3.051176309612993 Q -0.29448864284550286 -3.0350692442735654 -0.32999962637174884 -3.029155696353857 M -0.30877311787191036 -3.169549554256923 Q -0.272275718136602 -3.1756273673966233 -0.2484349892317798 -3.1968316038904656 Q -0.22459426032695767 -3.2180358403843075 -0.21497237162076666 -3.251571929269651 Q -0.20535048291457575 -3.285108018154995 -0.21241388737422745 -3.3275239151446776 Q -0.2194772918338792 -3.3699398121343602 -0.23944788939955985 -3.398547944419947 Q -0.2594184869652406 -3.4271560767055336 -0.2889263659597833 -3.439983199424344 Q -0.3184342449543261 -3.4528103221431543 -0.35493164468963445 -3.4467325090034544 Q -0.3904426282158804 -3.4408189610837456 -0.4137080164061754 -3.4192036490953686 Q -0.43697340459647044 -3.3975883371069915 -0.44659529330266134 -3.3640522482216477 Q -0.4562171820088523 -3.330516159336304 -0.4491537775492006 -3.2881002623466213 Q -0.4420903730895489 -3.2456843653569387 -0.42211977552386815 -3.217076233071352 Q -0.4021491779581875 -3.1884681007857654 -0.37321663967817187 -3.17605205356149 Q -0.3442841013981563 -3.1636360063372146 -0.30877311787191036 -3.169549554256923 M 0.7511605437181736 -2.8787501021034787 Q 0.6797399836100309 -2.912515522193256 0.630946520131393 -2.964895842178522 Q 0.5821530566527551 -3.017276162163788 0.558583631704087 -3.08206607038713 Q 0.5350142067554188 -3.146855978610472 0.5394794674276268 -3.2183021922759227 Q 0.5439447280998346 -3.2897484059413737 0.5781375585704955 -3.362073023772404 Q 0.6114755682793899 -3.4325895261576593 0.6649982696585459 -3.4802898452035285 Q 0.7185209710377018 -3.527990164249397 0.7840012317934901 -3.5506801499557383 Q 0.8494814925492786 -3.573370135662079 0.9220454691280587 -3.568929493470432 Q 0.994609445706839 -3.5644888512787847 1.06693406353787 -3.530296020808124 Q 1.112136949682264 -3.5089255017639607 1.1499753854294 -3.476657053084022 Q 1.1878138211765359 -3.444388604404083 1.21443325196386 -3.4035976016637863 Q 1.2410526827511839 -3.36280659892349 1.2532150511069065 -3.3183422671959164 L 1.1083312126014584 -3.2552100777841173 Q 1.0987490288002446 -3.284074965686199 1.0845559435969532 -3.3090360620646058 Q 1.0703628583936617 -3.3339971584430126 1.0488959355807503 -3.354101168613735 Q 1.027429012767839 -3.3742051787844574 0.9984991656354266 -3.3878823109727216 Q 0.9623368567199113 -3.4049787262080518 0.9240453570345841 -3.4070429577475334 Q 0.8857538573492569 -3.4091071892870146 0.8504699525993216 -3.396476034723892 Q 0.8151860478493863 -3.38384488016077 0.7853835875325041 -3.355901842404279 Q 0.7555811272156219 -3.327958804647788 0.7354928393141087 -3.2854680916720578 Q 0.7158319617934787 -3.243881436419215 0.7133649383536746 -3.203568116097671 Q 0.7108979149138706 -3.163254795776126 0.7237673931479954 -3.1273051569743053 Q 0.7366368713821203 -3.091355518172484 0.7654593483809382 -3.0622434103880485 Q 0.794281825379756 -3.0331313026036124 0.8367725383554865 -3.0130430147020992 Q 0.8657023854878989 -2.999365882513835 0.8957667528795968 -2.9951075009742114 Q 0.9258311202712949 -2.9908491194345874 0.9546053953857385 -2.99439045980771 Q 0.9833796705001822 -2.997931800180832 1.0091049748527172 -3.007892157401808 L 1.0276743586147 -2.8553170021939556 Q 0.9931054248777714 -2.8406886454751765 0.9461840009984924 -2.838536906378298 Q 0.8992625771192135 -2.83638516728142 0.8482650323523346 -2.8466686699799264 Q 0.7972674875854557 -2.8569521726784326 0.7511605437181736 -2.8787501021034787 M 1.0552758504298452 -2.689189288333352 L 1.5563642712852157 -3.2337169685156097 L 1.6740999859192174 -3.1253735261685023 L 1.1730115650638469 -2.5808458459862447 L 1.0552758504298452 -2.689189288333352 M 1.3635606406404246 -2.3267027014828066 Q 1.3332024728634513 -2.377293033061332 1.3337141591771462 -2.4259986608379696 Q 1.3342258454908411 -2.4747042886146073 1.3638068139787618 -2.51869538206904 Q 1.3933877824666823 -2.5626864755234733 1.450837820021957 -2.5971610050329175 L 1.7320857650686738 -2.765931836064227 L 1.814927544934652 -2.6278802532821492 L 1.5525437913239952 -2.470429417015135 Q 1.5251049674169985 -2.453963970085251 1.5105287648994332 -2.4335547976334606 Q 1.4959525623818681 -2.41314562518167 1.4955251761243749 -2.3895645450328113 Q 1.4950977898668816 -2.365983464883952 1.5095050559305299 -2.34197449396533 Q 1.5203105054782662 -2.3239677657763633 1.535317289497702 -2.312563975468137 Q 1.5503240735171377 -2.30116018515991 1.5674741793127942 -2.2968737097782252 Q 1.5846242851084509 -2.2925872343965406 1.602374245201408 -2.295074987740106 Q 1.6201242052943654 -2.297562741083672 1.6372734702362384 -2.3078536454148493 L 1.9090893195649254 -2.4709644790640115 L 1.9919310994309034 -2.332912896281934 L 1.5366181152241754 -2.0596893862891736 L 1.458921787523786 -2.189166336600315 L 1.5487834649410819 -2.2512540079348873 L 1.5745093804029717 -2.2317046531207843 Q 1.5357512344147066 -2.222441493856671 1.4960488025617955 -2.2312713808868065 Q 1.4563463707088844 -2.240101267916942 1.4212735004389496 -2.264537793263814 Q 1.3862006301690148 -2.288974318610686 1.3635606406404246 -2.3267027014828066 M 1.623372812437758 -1.6029894055135077 Q 1.6181797078546836 -1.6386128762145673 1.6233147705149376 -1.6727102534080591 Q 1.6284498331751915 -1.7068076306015512 1.641449325688151 -1.7354827625873939 Q 1.6544488182011106 -1.7641578945732368 1.6741890615502784 -1.7847205498617846 Q 1.6939293048994462 -1.8052832051503322 1.7168127679363068 -1.814682519989225 L 1.7337361098479824 -1.7817796250019975 L 1.6107243088069267 -1.7729423853517583 L 1.5892306259492024 -1.9203839724200327 L 2.3205013161737313 -2.0269868692781423 L 2.3437260338924806 -1.8676707919761812 L 2.0112403073492575 -1.8192018158674874 L 2.018354451715126 -1.8535876988711502 Q 2.044948031318626 -1.8514010292865273 2.06966499989324 -1.8378245251532261 Q 2.0943819684678537 -1.824248021019925 2.1154495089242005 -1.8010443846859319 Q 2.136517049380547 -1.777840748351939 2.150884297966267 -1.7486075109657693 Q 2.165251546551986 -1.7193742735795998 2.1700118924198044 -1.6867194254369617 Q 2.1799653428706964 -1.6184411065932642 2.1525541730181095 -1.5603796928375469 Q 2.1251430031655225 -1.5023182790818295 2.067768539922719 -1.4626267060769684 Q 2.0103940766799155 -1.4229351330721074 1.931230808455339 -1.4113949006652757 Q 1.8510779993779547 -1.3997104153533584 1.7848319824723993 -1.4208756047961408 Q 1.7185859655668438 -1.4420407942389233 1.6758118613226618 -1.489365481307174 Q 1.6330377570784798 -1.5366901683754244 1.623372812437758 -1.6029894055135077 M 1.7509022055531447 -1.6640242635179392 Q 1.7560953101362191 -1.6284007928168798 1.7778018739240546 -1.604279742082622 Q 1.7995084377118902 -1.5801586913483647 1.8327706416990557 -1.57035431549285 Q 1.8660328456862212 -1.5605499396373355 1.908583102356931 -1.5667528145560077 Q 1.950143818174834 -1.5728114365695944 1.9797174583409265 -1.5917758718980317 Q 2.009291098507019 -1.610740307226469 2.0222184645674357 -1.6399102096387157 Q 2.0351458306278527 -1.669080112050962 2.0299527260447783 -1.7047035827520216 Q 2.024615368556619 -1.7413165943058884 2.0038983456215904 -1.7655818979452313 Q 1.983181322686562 -1.7898472015845743 1.9493522218204502 -1.8000742214139498 Q 1.9155231209543384 -1.8103012412433253 1.8739624051364356 -1.8042426192297385 Q 1.8314121484657255 -1.7980397443110663 1.8024054051785794 -1.7786526650087682 Q 1.773398661891433 -1.7592655857064698 1.7594817549782091 -1.729951430389138 Q 1.745564848064985 -1.7006372750718062 1.7509022055531447 -1.6640242635179392" fill="#ffffff" fill-rule="nonzero"></path></g><g transform="matrix(1,0,0,1,0,0)"><g transform="matrix(1,0,0,1,0,0)" clip-path="url(#SvgjsClipPath12382)"><g clip-path="url(#SvgjsClipPath123774f986e73-2b20-4d86-9927-e0b6f39c7a4e)"><path d=" M 0.010980096223925484 -1.0084601769295947 L 0.010980096223925484 -0.9697053143053866 L 0.0452830011387253 -0.9891112838079354 L 0.04522592475783527 -1.027694917289474 Z" fill="#ffffff" transform="matrix(1,0,0,1,0,0)" fill-rule="nonzero"></path></g><g clip-path="url(#SvgjsClipPath123774f986e73-2b20-4d86-9927-e0b6f39c7a4e)"><path d=" M -0.04462670687501835 -0.9136846095230808 L -0.04456963049412854 -0.875671739850441 L -0.010837489388227262 -0.8946781746867611 L -0.010837489388227262 -0.9328051971211804 Z" fill="#ffffff" transform="matrix(1,0,0,1,0,0)" fill-rule="nonzero"></path></g><g clip-path="url(#SvgjsClipPath123774f986e73-2b20-4d86-9927-e0b6f39c7a4e)"><path d=" M -0.08944604701712311 -0.9513551150866453 L -0.05559975314944232 -0.9321774511076559 L -0.02181053566265123 -0.9512409623248657 L -0.05577098229211175 -0.970418626303855 Z" fill="#ffffff" transform="matrix(1,0,0,1,0,0)" fill-rule="nonzero"></path></g><g clip-path="url(#SvgjsClipPath123774f986e73-2b20-4d86-9927-e0b6f39c7a4e)"><path d=" M -0.0447979364457618 -0.9888971984721524 L -0.010837489816301282 -0.9697195344931628 L -0.010837489816301282 -1.0084743971173709 L -0.04474086006487199 -1.0275379083345804 Z" fill="#ffffff" transform="matrix(1,0,0,1,0,0)" fill-rule="nonzero"></path></g><g clip-path="url(#SvgjsClipPath123774f986e73-2b20-4d86-9927-e0b6f39c7a4e)"><path d=" M 0.010980096223925484 -0.8946781271705551 L 0.04516884837694546 -0.8754433868106759 L 0.04516884837694546 -0.9134562564833153 L 0.010980096223925484 -0.9328051496049747 Z" fill="#ffffff" transform="matrix(1,0,0,1,0,0)" fill-rule="nonzero"></path></g><g clip-path="url(#ad0f8e106-4082-4dae-930f-21fe848167b24f986e73-2b20-4d86-9927-e0b6f39c7a4e)"><path d=" M 0.9867409153749334 -0.9291504932827059 C 0.9034664756566428 -0.869848133538152 0.8034686563376259 -0.8417665541403463 0.6947952271233522 -0.8857724438064205 C 0.7001033305461082 -0.885487061901971 0.705525586730644 -0.8852587563784116 0.7109478429151801 -0.8852587563784116 C 0.8683645014093853 -0.8852587563784116 1.020929667527953 -1.0169910434721845 1.0582005442490252 -1.1851380615736815 C 1.0788051177502607 -1.2778301041387974 1.0601982175801696 -1.3677254040403106 1.0072884124952788 -1.4318221797796116 C 0.9605999329273822 -1.4883848732414524 0.8925078105257918 -1.5194915008264205 0.8155117727053844 -1.5194915008264205 C 0.8051238713834317 -1.5194915008264205 0.7947359700614791 -1.5189207370175222 0.7844051451204161 -1.517779209399725 C 0.7892566374960537 -1.7218843474618273 0.5676861268816571 -1.8359229564797468 0.2773385772949921 -1.8778170200528965 C 0.4215705918036421 -2.238197288991407 -0.08304169164351849 -2.288367427793585 0.04988919944894121 -2.6684390481390934 C -0.42886748345511727 -2.161657862218119 0.23481667353205404 -2.0895133167733486 0.18042288254402727 -1.7134941194710194 C 0.20656386499157842 -1.7482536354329377 0.22785335506349247 -1.780730096159262 0.24503334571133717 -1.8111518071735522 C 0.5151758564629954 -1.7717691043595558 0.6734486606705485 -1.6716000558978696 0.6734486606705485 -1.595174781886361 C 0.6734486606705485 -1.4979166288500574 0.4172327868560135 -1.3622460714748847 0.0000044425512126800015 -1.3622460714748847 C -0.41722390175358826 -1.3622460714748847 -0.6734397755681232 -1.4979166288500574 -0.6734397755681232 -1.595174781886361 C -0.6734397755681232 -1.675652478941049 -0.49815820985539494 -1.782328234824178 -0.20147518198995662 -1.816859445262537 C -0.10404579981098339 -1.7160054802301727 0.0041710183561716185 -1.6166355011009446 -0.011011298960528437 -1.4581343913698321 C 0.3526794000695934 -1.9925405456414942 -0.3172260824345716 -1.968283083763308 -0.18720608676749417 -2.4060589251884545 C -0.4114591872837132 -2.145162788140952 -0.36225934695666306 -2.0029855233443365 -0.2594647849740437 -1.8802713044311599 C -0.5832020173812709 -1.8372357132402133 -0.778289087262777 -1.7321580960220002 -0.778289087262777 -1.5023685865594656 C -0.778289087262777 -1.5023685865594656 -0.774065435076928 -1.0261803407954502 -0.49952804299675124 -0.729839771215351 C -0.3761289075128964 -0.5965664218375522 -0.16831380469295387 -0.5509623935065626 0.0000044425512126800015 -0.5509623935065626 C 0.11067554509663102 -0.5509623935065626 0.21147243374810554 -0.5627772043507613 0.29925590755669407 -0.5859502149920401 C -0.11637429808319077 -0.4348119583957182 -0.6391939470342132 -0.5331545626689289 -0.8089391038006264 -1.0663621129419043 C -0.9756592123798769 -0.9730993065678899 -1.0767985593166904 -0.8508416987018319 -1.0767985593166904 -0.7169405091342449 C -1.0767985593166904 -0.42453820983554547 -0.5946743699401307 -0.1875 0.0000044425512126800015 -0.1875 C 0.594683255042556 -0.1875 1.0768074444191158 -0.4245382098355459 1.0768074444191158 -0.7169405091342453 C 1.0768074444191158 -0.7923954846706265 1.044616365597241 -0.864197571830057 0.9867409153749334 -0.9291504932827059 M 0.25467925408172176 -1.0581431140937663 C 0.2571414959045961 -1.0567582017310702 0.2589377574521654 -1.054434984972491 0.2596582885978056 -1.0517034191367802 C 0.2603788197434458 -1.0489718533010695 0.25996216607601697 -1.0460649148125498 0.25850337160134185 -1.0436457133477444 C 0.2554394739564736 -1.0385674182730662 0.24890488955201429 -1.0368265444355849 0.24372058895087068 -1.0397074430663447 L 0.2112441282245463 -1.0580860377128762 L 0.1831054724458503 -1.042218803825498 L 0.24800131751760945 -1.0054616145324349 C 0.2504598113045384 -1.004087939219076 0.2522552087750183 -1.0017749348290896 0.25297615793300166 -0.9990525447250627 C 0.25369710709098503 -0.9963301546210359 0.25328181638740777 -0.9934317110703308 0.2518254350372293 -0.991021290167303 C 0.2488000963754804 -0.9858965141335916 0.2422376755499347 -0.9841228868834442 0.23704265238675837 -0.9870259435050135 L 0.16124521856503815 -1.0298903055532906 L 0.1337914793570203 -1.0143655299512515 L 0.15542342771427342 -1.0021511844408237 C 0.15788566953714778 -1.0007662720781276 0.15968193108471707 -0.9984430553195487 0.16040246223035726 -0.9957114894838377 C 0.16112299337599745 -0.9929799236481269 0.1607063397085684 -0.9900729851596075 0.1592475452338935 -0.9876537836948021 C 0.15618345331932693 -0.982580172131776 0.1496674890614509 -0.9808191007107283 0.1444647625834221 -0.9836584370325125 L 0.11193122547620815 -1.002094108059934 L 0.07808493160852725 -0.9829735204618342 L 0.11604072490027728 -0.9615128012472509 C 0.1198528911372101 -0.9593525913361776 0.12192325655803415 -0.9550526016160044 0.12123467556125345 -0.950725365259069 C 0.12137094227405298 -0.9468093312047499 0.1193274594708511 -0.943139851332333 0.11592657213849744 -0.9411936096504643 L 0.0779137024658576 -0.9196758140549908 L 0.11181707271442809 -0.9006123028377813 L 0.1443506098216425 -0.9189908974843128 C 0.14948748410172907 -0.9219017929096949 0.15605126790406176 -0.9200753487212199 0.15907631609122364 -0.9149955508220233 C 0.16053511056589853 -0.9125763493572179 0.1609517642333278 -0.9096694108686982 0.16023123308768739 -0.9069378450329875 C 0.1595107019420472 -0.9042062791972767 0.1577144403944779 -0.9018830624386978 0.15525219857160377 -0.9004981500760016 L 0.13367732659524045 -0.8882838045655737 L 0.1611310658032583 -0.8728161053444243 L 0.23692849962497853 -0.9156233910118117 C 0.24200829752417508 -0.9185342864371941 0.2486291577073978 -0.9167649186296087 0.25165420589455967 -0.9116851207304122 C 0.25311763804774623 -0.909272932093883 0.25354297394893144 -0.9063713096776105 0.2528334174701157 -0.9036405923197446 C 0.25212386099130013 -0.9009098749618785 0.2503397716053657 -0.8985823551792669 0.24788716475582961 -0.8971877199843901 L 0.18293424330318087 -0.8604876070722169 L 0.21107289908187665 -0.8445632968039487 L 0.24360643618909106 -0.8629989678313703 C 0.24878025266120418 -0.8659295150263728 0.2553490061347481 -0.8641472950916904 0.2583321424586722 -0.8590036211690808 C 0.2598118544893171 -0.8565954876677442 0.2602464159505766 -0.8536883721507058 0.2595355963222805 -0.8509527935812029 C 0.2588247766939844 -0.8482172150116998 0.2570299546100516 -0.8458893881323886 0.25456510131994214 -0.8445062204230591 L 0.23293315296268924 -0.8322918749126311 L 0.2584462952204518 -0.8179086269283891 C 0.2623274891209617 -0.815682648073685 0.26306948207252967 -0.8098037808420304 0.2600444338853676 -0.8046669065619441 C 0.2570193856982057 -0.7995871086627471 0.25142590037100043 -0.7971899006653735 0.24754470647049054 -0.7994158795200779 L 0.22197448783183793 -0.8137991275043199 L 0.22197448783183793 -0.789427512864354 C 0.2219145774392577 -0.7865814334099976 0.22072618915869002 -0.7838757992967014 0.21867089815442076 -0.7819061454176097 C 0.2166156071501515 -0.7799364915385181 0.21386187474267127 -0.7788642599924354 0.21101582270098684 -0.7789254587806218 C 0.20511117896330222 -0.7788299029845096 0.20023910797201427 -0.7835234164002005 0.20011423395102534 -0.789427512864354 L 0.20017131033191538 -0.8261276257765275 L 0.1720326545532196 -0.8419948596639057 L 0.17191850179143975 -0.7687658629822287 C 0.17179362777045104 -0.7628617665180748 0.16692155677916287 -0.7581682531023839 0.16101691304147847 -0.7582638088984963 C 0.15510248561001805 -0.7581678669929315 0.15021395671201665 -0.7628527071868496 0.15005824791062738 -0.7687658629822287 L 0.1502294770532968 -0.8543233579361129 L 0.12271866146438937 -0.8697910571572625 L 0.12271866146438937 -0.8454194425172967 C 0.1225629526630001 -0.8395062867219176 0.1176744237649987 -0.8348214465279995 0.11175999633353828 -0.8349173884335643 C 0.10585535259585344 -0.8348218326374519 0.10098328160456571 -0.8395153460531428 0.10085840758357678 -0.8454194425172967 L 0.10091548396446681 -0.8821195554294696 L 0.0670121137158961 -0.9012401430275696 L 0.06695503733500607 -0.8583757809792925 C 0.06687874143555139 -0.8534318989925236 0.06339949367994069 -0.8491952639703857 0.05856480934419839 -0.8481591088000093 C 0.05547451649646917 -0.8468733470991932 0.05196726409801711 -0.8470623607015051 0.04903305373559319 -0.8486727962280178 L 0.011020184062953575 -0.8700764390617115 L 0.011020184062953575 -0.8318352638655122 L 0.04355372117016776 -0.8135708219807605 C 0.046015962993042114 -0.8121859096180644 0.0478122245406114 -0.8098626928594852 0.048532755686251816 -0.8071311270237744 C 0.049253286831891785 -0.8043995611880637 0.04883663316446274 -0.8014926226995442 0.04737783868978762 -0.7990734212347386 C 0.04439470236586396 -0.793929747312129 0.03782594889232005 -0.7921475273774465 0.0326521324202067 -0.7950780745724491 L 0.011020184062953575 -0.8072353437019875 L 0.011020184062953575 -0.7762428688787988 L 0.0868746942655636 -0.7335497359731915 C 0.08934284778370616 -0.7321858758750686 0.09115047280833943 -0.7298772012350883 0.0918824166672807 -0.7271539395246152 C 0.09261436052622196 -0.724430677814142 0.09220772035202884 -0.7215268647017499 0.0907558881660735 -0.7191094116080594 C 0.08773003532423562 -0.7139896847995275 0.08118673274268695 -0.7121959609258215 0.07597310551560232 -0.7150569885648803 L 0.011020184062953575 -0.7516429487152736 L 0.011020184062953575 -0.7199084809405174 L 0.04355372117016776 -0.7015869626748754 C 0.046015962993042114 -0.7002020503121795 0.0478122245406114 -0.6978788335536004 0.048532755686251816 -0.6951472677178896 C 0.049253286831891785 -0.6924157018821788 0.04883663316446274 -0.6895087633936592 0.04737783868978762 -0.6870895619288537 C 0.0443547783410414 -0.6819981308155918 0.037833993009539935 -0.6802289254930916 0.03265213242020648 -0.6830942152665642 L 0.011020184062953575 -0.6952514843961022 L 0.011020184062953575 -0.6658571482378299 C 0.011020184062953575 -0.6615193432902013 0.0061116153064266765 -0.6579235312941405 0.00006151893210226689 -0.6579235312941405 C -0.00593150106133189 -0.6579235312941405 -0.01084006981785901 -0.6615193432902013 -0.01084006981785901 -0.6658571482378299 L -0.01084006981785901 -0.6952514843961022 L -0.032529094556001725 -0.6830942152665642 C -0.03771095514533496 -0.6802289254930916 -0.04423174047683642 -0.6819981308155918 -0.047254800825582643 -0.6870895619288537 C -0.04870901232993252 -0.6895157834519985 -0.049117005451256635 -0.6924280675868302 -0.0483854891422435 -0.6951604961528499 C -0.04765397283323036 -0.6978929247188697 -0.0458455049828399 -0.7002118256014314 -0.04337360692507275 -0.7015869626748754 L -0.010840069817858566 -0.7199084809405174 L -0.010840069817858566 -0.7516429487152736 L -0.07585006765139735 -0.7150569885648799 C -0.08104663559744629 -0.7122015216333029 -0.0875718557135976 -0.7139972217427863 -0.09057577392097849 -0.7191094116080594 C -0.09203215527115693 -0.7215198325110872 -0.0924474459747342 -0.7244182760617921 -0.09172649681675082 -0.7271406661658191 C -0.09100554765876723 -0.729863056269846 -0.0892101501882877 -0.7321760606598322 -0.08675165640135851 -0.7335497359731915 L -0.010840069817858566 -0.7762428688787988 L -0.010840069817858566 -0.807235343701987 L -0.0325290945560015 -0.7950780745724491 C -0.03770291102811507 -0.7921475273774465 -0.04427166450165876 -0.793929747312129 -0.047254800825582866 -0.7990734212347386 C -0.04869289484906747 -0.8015034937091949 -0.04909182937524181 -0.8044102994572278 -0.0483615902590222 -0.8071379573325181 C -0.04763135114280259 -0.809865615207809 -0.04583346736493654 -0.8121842963705075 -0.04337360692507275 -0.8135708219807605 L -0.010840069817858344 -0.8318352638655122 L -0.010840069817858344 -0.8700764390617115 L -0.048852939490498404 -0.8486727962280178 C -0.05245325298017911 -0.8466896612876078 -0.05686057542972489 -0.8468879907978373 -0.060268215668468406 -0.8491864836560268 C -0.06398331217715603 -0.8508554163404471 -0.06638951836467788 -0.8545315646824938 -0.06643246480457199 -0.8586040865028519 L -0.06648954118546202 -0.9014684485511291 L -0.10033583505314281 -0.8823478609530291 L -0.10027875867225289 -0.8456477480408562 C -0.10043446747364226 -0.8397345922454771 -0.10532299637164366 -0.835049752051559 -0.11123742380310397 -0.8351456939571236 C -0.11407804851280656 -0.8350845626841874 -0.11682580774118845 -0.8361585708368751 -0.11887204435130483 -0.8381298144822231 C -0.12091828096142121 -0.8401010581275707 -0.12209408818963141 -0.842806820802176 -0.12213901255306525 -0.8456477480408562 L -0.12219608893395506 -0.8700193626808219 L -0.14964982814197292 -0.8545516634596724 L -0.1495356753801932 -0.7689941685057882 C -0.149660549401182 -0.7630900720416343 -0.15453262039247007 -0.7583965586259434 -0.16043726413015447 -0.7584921144220556 C -0.1663422474946029 -0.758364394421021 -0.1712402261788014 -0.7630327803543979 -0.17139592926100566 -0.7689370921248981 L -0.17151008202278528 -0.8422231651874648 L -0.19964873780148107 -0.826355931300087 L -0.19959166142059104 -0.7896558183879134 C -0.19971653544157986 -0.78375172192376 -0.20458860643286791 -0.7790582085080691 -0.21049325017055232 -0.7791537643041813 C -0.21640767760201285 -0.7790578223986167 -0.22129620650001403 -0.7837426625925346 -0.2214519153014034 -0.7896558183879134 L -0.2214519153014034 -0.8140274330278792 L -0.24753582136806485 -0.7993588031391878 C -0.25141701526857463 -0.797132824284484 -0.2570105005957799 -0.7995300322818575 -0.2600355487829419 -0.804609830181054 C -0.263060596970104 -0.8096896280802506 -0.2623186040185359 -0.8156255716927951 -0.25843741011802634 -0.8177944741666094 L -0.23241058043225493 -0.8325201804361906 L -0.2539854524086179 -0.8447345259466184 C -0.2564476942314924 -0.8461194383093145 -0.2582439557790617 -0.8484426550678936 -0.25896448692470175 -0.8511742209036044 C -0.25968501807034194 -0.8539057867393152 -0.259268364402913 -0.8568127252278346 -0.2578095699282379 -0.8592319266926403 C -0.25478650957949145 -0.8643233578059022 -0.2482657242479901 -0.8660925631284022 -0.24308386365865675 -0.8632272733549298 L -0.21055032655144257 -0.8448486787083982 L -0.18241167077274667 -0.8607159125957764 L -0.24730751584450583 -0.8974160255079495 C -0.24976975766737997 -0.8988009378706456 -0.25156601921494925 -0.9011241546292246 -0.25228655036058967 -0.9038557204649353 C -0.25300708150622964 -0.9065872863006461 -0.2525904278388007 -0.9094942247891658 -0.2511316333641258 -0.9119134262539712 C -0.2481065851769636 -0.9169932241531682 -0.2414857249937411 -0.9187625919607536 -0.23634885071365452 -0.9158516965353711 L -0.16060849327282423 -0.872987334487094 L -0.13309767768391678 -0.8885121100891331 L -0.1547296260411698 -0.9007264555995607 C -0.15719186786404427 -0.9021113679622572 -0.15898812941161355 -0.9044345847208359 -0.15970866055725375 -0.9071661505565467 C -0.16042919170289383 -0.9098977163922575 -0.1600125380354649 -0.9128046548807769 -0.15855374356078977 -0.9152238563455826 C -0.15552869537362768 -0.9203036542447793 -0.14890783519040518 -0.9220730220523647 -0.1437709609103187 -0.9192192030078719 L -0.11129450018399423 -0.9008406083613405 L -0.07739112993542352 -0.9199041195785502 L -0.11534692322717355 -0.9414219151740235 C -0.11863835938483624 -0.9432531251926672 -0.12067232582714404 -0.9467305516908062 -0.12065502664992978 -0.9504970597355096 C -0.12138891014370334 -0.9548163435938055 -0.11933396289084341 -0.9591317328248117 -0.1155181523698432 -0.9612844957236912 L -0.07756235907809306 -0.9827452149382747 L -0.11140865294577396 -1.0018658025363745 L -0.14394219005298836 -0.9834872078898427 C -0.1491160065251017 -0.9805566606948404 -0.1556847599986455 -0.9823388806295228 -0.15866789632256972 -0.9874825545521322 C -0.16012427767274784 -0.98989297545516 -0.160539568376325 -0.9927914190058651 -0.15981861921834162 -0.9955138091098921 C -0.15909767006035824 -0.9982361992139188 -0.1573022725898786 -1.0005492036039052 -0.15484377880294953 -1.0019228789172643 L -0.13326890682658632 -1.014137224427692 L -0.16072264603460407 -1.0296620000297312 L -0.23646300347543447 -0.986797637981454 C -0.24164329043467592 -0.9838847153838834 -0.24820130234458593 -0.9856318305259055 -0.2512457861259054 -0.9907359082628537 C -0.2527117010520863 -0.9931568849432197 -0.2531384285757995 -0.9960670457329357 -0.2524292740880668 -0.9988069607991752 C -0.25172011960033436 -1.0015468758654145 -0.24993511874537433 -1.003884589310062 -0.2474787449871756 -1.0052903853897655 L -0.18252582353452662 -1.0419904983019386 L -0.2106644793132223 -1.0578577321893168 L -0.2431980164204366 -1.0394220611618954 C -0.24840074289846525 -1.0365827248401112 -0.2549167071563412 -1.0383437962611588 -0.25798079907090765 -1.043417407824185 C -0.25943959354558277 -1.0458366092889906 -0.2598562472130117 -1.0487435477775098 -0.2591357160673715 -1.0514751136132205 C -0.25841518492173143 -1.0542066794489315 -0.25661892337416203 -1.0565298962075105 -0.2541566815512877 -1.0579148085702068 L -0.23252473319403455 -1.0701291540806344 L -0.2586086392606961 -1.0848548603502157 C -0.2624898331612059 -1.08702376282403 -0.26317474973188393 -1.0929597064365744 -0.26014970154472195 -1.098039504335771 C -0.25712465335755996 -1.1031763786158573 -0.2515311680303547 -1.1055165102323412 -0.2476499741298448 -1.103347607758527 L -0.22156606806318346 -1.0886219014889458 L -0.22156606806318346 -1.1130505925098013 C -0.22156606806318346 -1.1188153069796762 -0.21665749930665645 -1.1234955702126437 -0.21060740293233238 -1.1234955702126437 C -0.20776677822262968 -1.12355670148558 -0.2050190189942478 -1.1224826933328922 -0.2029727823841314 -1.1205114496875446 C -0.20092654577401503 -1.1185402060421967 -0.19975073854580483 -1.1158344433675917 -0.199705814182371 -1.1129935161289115 L -0.19976289056326102 -1.0762934032167384 L -0.17162423478456534 -1.06042616932936 L -0.17151008202278561 -1.133712242391927 C -0.17151008202278561 -1.1394769568618017 -0.1666015132662586 -1.1441572200947694 -0.16060849327282434 -1.1441572200947694 C -0.15776348056862133 -1.144233880308109 -0.1550068231543018 -1.1431649999597804 -0.1529571563795583 -1.1411904518626454 C -0.15090748960481482 -1.1392159037655103 -0.1497364745254699 -1.1365010577325072 -0.1497069045228635 -1.133655166011037 L -0.1498210572846429 -1.0481547474380424 L -0.12231024169573534 -1.0326299718360032 L -0.12231024169573534 -1.057058662856859 C -0.12231024169573534 -1.0628233773267337 -0.11740167293920845 -1.0675036405597014 -0.11135157656488426 -1.0675036405597014 C -0.10851095185518167 -1.0675647718326375 -0.10576319262679978 -1.0664907636799497 -0.1037169560166834 -1.064519520034602 C -0.10167071940656691 -1.0625482763892542 -0.10049491217835693 -1.0598425137146492 -0.10044998781492309 -1.057001586475969 L -0.1005070641958129 -1.0203014735637956 L -0.0666036939472423 -1.001180885965696 L -0.06654661756635227 -1.044102324394863 C -0.06652789251237445 -1.0474891980450483 -0.06484111386921332 -1.0506492390474256 -0.06203758347605404 -1.052549628766561 C -0.05858612758566317 -1.0561014680120726 -0.053181415848815305 -1.0568969667092711 -0.048852939490498626 -1.0544902257168156 L -0.01084006981785901 -1.033143659264012 L -0.01084006981785901 -1.0713277580793212 L -0.043373606925073194 -1.089649276344963 C -0.045841760443216195 -1.0910131364430857 -0.047649385467849026 -1.093321811083066 -0.04838132932679051 -1.0960450727935391 C -0.049113273185731776 -1.0987683345040122 -0.04870663301153866 -1.1016721476164042 -0.04725480082558331 -1.104089600710095 C -0.044229752638420994 -1.1092264749901815 -0.037665968836088304 -1.1109958427977669 -0.03252909455600195 -1.1081420237532744 L -0.010840069817859233 -1.0959847546237362 L -0.010840069817859233 -1.1269201530660347 L -0.08675165640135907 -1.1696132859716424 C -0.08921389822423309 -1.1709981983343385 -0.09101015977180238 -1.1733214150929174 -0.09173069091744268 -1.1760529809286282 C -0.09245122206308276 -1.178784546764339 -0.09203456839565372 -1.1816914852528586 -0.09057577392097904 -1.184110686717664 C -0.08757245606945319 -1.1892280214152153 -0.08102798550195278 -1.1910036529645374 -0.07585006765139801 -1.1881060333799536 L -0.010840069817859233 -1.1515771496104499 L -0.010840069817859233 -1.183311617385206 L -0.043373606925073416 -1.201633135650848 C -0.045841760443216195 -1.2029969957489706 -0.047649385467849026 -1.2053056703889509 -0.04838132932679051 -1.208028932099424 C -0.049113273185731776 -1.210752193809897 -0.04870663301153866 -1.2136560069222893 -0.04725480082558331 -1.21607346001598 C -0.04423139275318411 -1.221160160187637 -0.03772936663654147 -1.2229494774522944 -0.03252909455600195 -1.2201258830591593 L -0.010840069817859455 -1.2079115375487315 L -0.010840069817859455 -1.2367351098981054 C -0.010840069817859455 -1.2411299912266238 -0.005931501061332334 -1.2446687268417944 0.0000615189321018228 -1.2446687268417944 C 0.00611161530642601 -1.2446687268417944 0.011020184062952909 -1.2411299912266238 0.011020184062952909 -1.2367351098981054 L 0.011020184062952909 -1.2079115375487315 L 0.03265213242020604 -1.2201258830591593 C 0.037789006700292616 -1.2229797021036517 0.044352790502625306 -1.2211532579151765 0.04737783868978718 -1.21607346001598 C 0.04883422003996585 -1.2136630391129524 0.04924951074354311 -1.210764595562247 0.04852856158555974 -1.2080422054582203 C 0.04780761242757614 -1.2053198153541933 0.04601221495709651 -1.203006810964207 0.043553721170167314 -1.201633135650848 L 0.011020184062952909 -1.183311617385206 L 0.011020184062952909 -1.1515771496104499 L 0.07597310551560188 -1.1881060333799536 C 0.0811720553689772 -1.190976944045833 0.08771096408766432 -1.189209671419161 0.09075588816607305 -1.184110686717664 C 0.09221009967042271 -1.1816844651945195 0.09261809279174682 -1.1787721810596878 0.0918865764827339 -1.1760397524936679 C 0.09115506017372055 -1.1733073239276481 0.08934659232333031 -1.1709884230450864 0.08687469426556316 -1.1696132859716424 L 0.011020184062952909 -1.1269201530660347 L 0.011020184062952909 -1.0959847546237362 L 0.03265213242020604 -1.1081420237532744 C 0.037789006700292616 -1.1109958427977669 0.044352790502625306 -1.1092264749901815 0.04737783868978718 -1.104089600710095 C 0.04883422003996585 -1.1016791798070673 0.04924951074354311 -1.0987807362563622 0.04852856158555974 -1.0960583461523354 C 0.04780761242757614 -1.0933359560483085 0.04601221495709651 -1.0910229516583219 0.043553721170167314 -1.089649276344963 L 0.011020184062952909 -1.0713277580793212 L 0.011020184062952909 -1.033143659264012 L 0.04903305373559297 -1.0544902257168156 C 0.05280009487432302 -1.05660205180974 0.05730912896462126 -1.056202517143511 0.060676635437122206 -1.0538623855270275 C 0.06450866812111422 -1.0522333624866154 0.06701636313960013 -1.04849421009298 0.06706919009678547 -1.0443306299184225 L 0.06718334285856509 -1.0014662678701454 L 0.10102963672624576 -1.020586855468245 L 0.10097256034535596 -1.0572298919995284 C 0.10097256034535596 -1.0630516828502932 0.1058811291018833 -1.0677319460832608 0.11193122547620704 -1.0677319460832608 C 0.11783586921389166 -1.067827501879373 0.12270794020517961 -1.063133988463682 0.12283281422616854 -1.0572298919995284 L 0.12288989060705813 -1.0328582773595627 L 0.15034362981507599 -1.0483259765807118 L 0.15022947705329637 -1.1338834715345965 C 0.15022947705329637 -1.1397052623853612 0.15508096942893346 -1.1443855256183288 0.16113106580325742 -1.1443855256183288 C 0.16703604916770587 -1.1445132456193634 0.17193402785190437 -1.1398448596859867 0.17208973093410873 -1.1339405479154863 L 0.17214680731499854 -1.0606544748529194 L 0.20028546309369433 -1.0765217087402976 L 0.20028546309369433 -1.113221821652471 C 0.20033038745712806 -1.116062748891151 0.20150619468533826 -1.1187685115657564 0.20355243129545486 -1.120739755211104 C 0.20559866790557102 -1.1227109988564516 0.20834642713395324 -1.1237850070091395 0.21118705184365583 -1.1237238757362031 C 0.21709169558134045 -1.1238194315323156 0.22196376657262817 -1.1191259181166247 0.2220886405936171 -1.113221821652471 L 0.2221457169745069 -1.0888502070125052 L 0.2476588592322695 -1.1032334549967473 C 0.2515400531327794 -1.1054594338514514 0.25719061484087447 -1.1030622258540779 0.26015858664714653 -1.097982427954881 C 0.2631836348343086 -1.0929026300556846 0.26249871826363047 -1.0869666864431402 0.2586175243631208 -1.0847407075884359 L 0.23304730572446797 -1.0703574596041938 Z M 0.751928684394092 -1.3403287412131826 C 0.7727615634188867 -1.3507166425351353 0.7943935117761398 -1.3565955097667897 0.8155117727053844 -1.3565955097667897 C 0.841823984295605 -1.3565955097667897 0.8626568633204001 -1.3475203652053036 0.8774396459708713 -1.3295413052250011 C 0.8985579069001155 -1.3040281629672383 0.9050646143215584 -1.263903467201674 0.8951904004276143 -1.2196121956311508 C 0.8749282852117177 -1.1282899862073912 0.7888571028298246 -1.0482118238189322 0.7109478429151797 -1.0482118238189322 C 0.7035849897803892 -1.0482118238189322 0.6966787476927172 -1.0488967403896106 0.6902291166521646 -1.0503236499118567 Z" fill="#ffffff" transform="matrix(1,0,0,1,0,0)" fill-rule="nonzero"></path></g><g clip-path="url(#SvgjsClipPath123774f986e73-2b20-4d86-9927-e0b6f39c7a4e)"><path d=" M 0.02189598135882198 -0.9512266929085877 L 0.056084733511841955 -0.9319919525487086 L 0.09038763842664133 -0.9513408456703674 L 0.056255962654511604 -0.9705755860302467 Z" fill="#ffffff" transform="matrix(1,0,0,1,0,0)" fill-rule="nonzero"></path></g></g></g></g><defs><clipPath id="SvgjsClipPath12382"><path d=" M -1.07679855931669 -2.66844525050222 h 2.15359711863338 v 2.48094525050222 h -2.15359711863338 Z"></path></clipPath><clipPath id="SvgjsClipPath123774f986e73-2b20-4d86-9927-e0b6f39c7a4e"><path d=" M -1.0767985593166902 -2.66844525050222 L 1.07679855931669 -2.66844525050222 L 1.07679855931669 -0.1875 L -1.0767985593166904 -0.1875 Z"></path></clipPath><clipPath id="ad0f8e106-4082-4dae-930f-21fe848167b24f986e73-2b20-4d86-9927-e0b6f39c7a4e"><path d=" M -1.0767985593166902 -0.1875 L 1.0767503680382267 -0.1875 L 1.0767503680382267 -2.6684390481390934 L -1.0767985593166902 -2.6684390481390934 Z"></path></clipPath></defs></svg>